<?xml version="1.0" encoding="utf-8"?>
<!-- Generator: Adobe Illustrator 17.1.0, SVG Export Plug-In . SVG Version: 6.00 Build 0)  -->
<!DOCTYPE svg PUBLIC "-//W3C//DTD SVG 1.1//EN" "http://www.w3.org/Graphics/SVG/1.1/DTD/svg11.dtd">
<svg version="1.1" id="Layer_1" xmlns="http://www.w3.org/2000/svg" xmlns:xlink="http://www.w3.org/1999/xlink" x="0px" y="0px"
	 viewBox="223 184.7 24 24" enable-background="new 223 184.7 24 24" xml:space="preserve">
<path d="M226.2,195.4l-0.2-0.4l-1,0.4l1,0.5L226.2,195.4z M244.4,188.8l0.5,0.1l0.1-0.8l-0.7,0.3L244.4,188.8z M241.8,204.5
	l-0.3,0.4l0.6,0.4l0.1-0.7L241.8,204.5z M234,199.3l-0.4-0.3l-0.3,0.4l0.4,0.3L234,199.3z M239.2,192.8l0.4,0.3l-0.6-0.7
	L239.2,192.8z M231.4,198l-0.2,0.4l0.2,0.1l0.2-0.1L231.4,198z M226.3,195.8l18.3-6.5l-0.3-0.9l-18.3,6.5L226.3,195.8z M244,188.8
	l-2.6,15.7l0.9,0.2l2.6-15.7L244,188.8z M242.1,204.1l-7.8-5.2l-0.5,0.8l7.8,5.2L242.1,204.1z M234.3,199.6l5.2-6.5l-0.7-0.6
	l-5.2,6.5L234.3,199.6z M239,192.4l-7.8,5.2l0.5,0.8l7.8-5.2L239,192.4z M231.6,197.6l-5.2-2.6l-0.4,0.8l5.2,2.6L231.6,197.6z"/>
</svg>
