<?xml version="1.0" encoding="utf-8"?>
<!-- Generator: Adobe Illustrator 17.1.0, SVG Export Plug-In . SVG Version: 6.00 Build 0)  -->
<!DOCTYPE svg PUBLIC "-//W3C//DTD SVG 1.1//EN" "http://www.w3.org/Graphics/SVG/1.1/DTD/svg11.dtd">
<svg version="1.1" xmlns="http://www.w3.org/2000/svg" xmlns:xlink="http://www.w3.org/1999/xlink" x="0px" y="0px"
	 viewBox="165 153.6 24 24" enable-background="new 165 153.6 24 24" xml:space="preserve">
<g id="Layer_1">
	<g>
		<circle cx="177" cy="165.6" r="3.5"/>
		<path d="M187.4,161.2c0-1.1-0.2-1.9-0.5-2.5c-0.3-0.7-0.6-1.3-1.2-1.9c-0.6-0.6-1.2-0.9-1.9-1.2c-0.7-0.3-1.4-0.4-2.5-0.5
			c-1.1-0.1-1.5-0.1-4.3-0.1s-3.2,0-4.3,0.1c-1.1,0-1.9,0.2-2.5,0.5c-0.7,0.3-1.3,0.6-1.9,1.2c-0.6,0.6-0.9,1.2-1.2,1.9
			c-0.3,0.7-0.4,1.4-0.5,2.5c0,1.1-0.1,1.5-0.1,4.3s0,3.2,0.1,4.3c0,1.1,0.2,1.9,0.5,2.5c0.3,0.7,0.6,1.3,1.2,1.9
			c0.6,0.6,1.2,0.9,1.9,1.2c0.7,0.3,1.4,0.4,2.5,0.5c1.1,0,1.5,0.1,4.3,0.1s3.2,0,4.3-0.1c1.1,0,1.9-0.2,2.5-0.5
			c0.7-0.3,1.3-0.6,1.9-1.2c0.6-0.6,0.9-1.2,1.2-1.9c0.3-0.7,0.4-1.4,0.5-2.5c0-1.1,0.1-1.5,0.1-4.3S187.5,162.3,187.4,161.2z
			 M177,170.9c-3,0-5.4-2.4-5.4-5.4c0-3,2.4-5.4,5.4-5.4c3,0,5.4,2.4,5.4,5.4C182.4,168.5,180,170.9,177,170.9z M182.6,161.2
			c-0.7,0-1.3-0.6-1.3-1.3c0-0.7,0.6-1.3,1.3-1.3c0.7,0,1.3,0.6,1.3,1.3C183.9,160.6,183.3,161.2,182.6,161.2z"/>
	</g>
</g>
<g id="Layer_2">
</g>
</svg>
