<?xml version="1.0" encoding="utf-8"?>
<!-- Generator: Adobe Illustrator 17.1.0, SVG Export Plug-In . SVG Version: 6.00 Build 0)  -->
<!DOCTYPE svg PUBLIC "-//W3C//DTD SVG 1.1//EN" "http://www.w3.org/Graphics/SVG/1.1/DTD/svg11.dtd">
<svg version="1.1" id="Layer_1" xmlns="http://www.w3.org/2000/svg" xmlns:xlink="http://www.w3.org/1999/xlink" x="0px" y="0px"
	 viewBox="368.6 184.7 24 24" enable-background="new 368.6 184.7 24 24" xml:space="preserve">
<g>
	<path d="M370.2,207.2c0.1-0.5,0.2-0.9,0.3-1.3c0.3-1.2,0.7-2.4,1-3.7c0.1-0.3,0-0.5-0.1-0.8c-0.5-0.9-0.8-1.8-1-2.8
		c-0.5-2.5-0.1-4.9,1.1-7.1c1.2-2.2,3.1-3.8,5.5-4.7c1.3-0.5,2.6-0.7,4-0.7c1.9,0.1,3.7,0.6,5.3,1.6c1.5,0.9,2.6,2.1,3.5,3.6
		c0.8,1.3,1.2,2.8,1.3,4.3c0.2,2.1-0.3,4.1-1.3,5.9c-1.2,2.2-3.1,3.8-5.5,4.7c-1.5,0.5-3,0.7-4.5,0.6c-1.3-0.1-2.5-0.4-3.7-1
		c-0.3-0.2-0.7-0.2-1-0.1c-1.6,0.4-3.2,0.8-4.8,1.2C370.3,207.2,370.3,207.2,370.2,207.2z M372.6,204.8c0.1,0,0.1,0,0.1,0
		c0.8-0.2,1.7-0.4,2.5-0.7c0.5-0.1,0.8-0.1,1.3,0.1c1.7,1,3.5,1.3,5.4,1c1.5-0.2,2.9-0.8,4.1-1.8c1.8-1.5,2.9-3.3,3.3-5.6
		c0.2-1.7,0-3.3-0.7-4.9c-0.7-1.6-1.8-2.8-3.3-3.8c-2.1-1.3-4.3-1.7-6.7-1.1c-1.6,0.4-2.9,1.1-4.1,2.2c-1.6,1.6-2.5,3.6-2.6,6
		c-0.1,1.5,0.3,3,1,4.3c0.4,0.7,0.5,1.4,0.2,2.2C372.9,203.5,372.8,204.1,372.6,204.8z"/>
	<path d="M375.4,194c0-0.6,0.4-1.4,1-2c0.3-0.3,1-0.3,1.4-0.1c0.1,0.1,0.2,0.3,0.3,0.4c0.2,0.6,0.4,1.1,0.7,1.7
		c0.2,0.4,0.1,0.7-0.2,1c-0.2,0.2-0.3,0.4-0.5,0.6c-0.1,0.2-0.1,0.3,0,0.5c0.8,1.4,2,2.5,3.6,3.1c0.3,0.1,0.5,0.1,0.7-0.2
		c0.2-0.3,0.5-0.6,0.7-0.9c0.2-0.2,0.3-0.3,0.6-0.1c0.6,0.3,1.3,0.6,1.9,0.9c0.2,0.1,0.4,0.3,0.3,0.6c-0.1,1-0.6,1.7-1.6,2
		c-0.7,0.2-1.3,0.1-1.9,0c-1.5-0.4-2.8-1.2-3.9-2.2c-1-0.9-1.8-2-2.5-3.1C375.6,195.6,375.4,194.9,375.4,194z"/>
</g>
</svg>
