<?xml version="1.0" encoding="utf-8"?>
<!-- Generator: Adobe Illustrator 17.1.0, SVG Export Plug-In . SVG Version: 6.00 Build 0)  -->
<!DOCTYPE svg PUBLIC "-//W3C//DTD SVG 1.1//EN" "http://www.w3.org/Graphics/SVG/1.1/DTD/svg11.dtd">
<svg version="1.1" id="Layer_1" xmlns="http://www.w3.org/2000/svg" xmlns:xlink="http://www.w3.org/1999/xlink" x="0px" y="0px"
	 viewBox="107 153.6 24 24" enable-background="new 107 153.6 24 24" xml:space="preserve">
<path d="M125,155.6h-12c-2.2,0-4,1.8-4,4v12c0,2.2,1.8,4,4,4h12c2.2,0,4-1.8,4-4v-12C129,157.3,127.2,155.6,125,155.6z M125.8,170.3
	h-1.6c-0.6,0-0.8-0.5-1.9-1.6c-1-0.9-1.4-1-1.6-1c-0.3,0-0.4,0.1-0.4,0.5v1.4c0,0.4-0.1,0.6-1.2,0.6c-1.7,0-3.6-1-4.9-2.9
	c-2-2.8-2.6-4.9-2.6-5.3c0-0.2,0.1-0.4,0.5-0.4h1.6c0.4,0,0.6,0.2,0.7,0.6c0.8,2.3,2.1,4.3,2.7,4.3c0.2,0,0.3-0.1,0.3-0.6v-2.4
	c-0.1-1.1-0.6-1.2-0.6-1.6c0-0.2,0.2-0.4,0.4-0.4h2.5c0.3,0,0.5,0.2,0.5,0.6v3.2c0,0.3,0.1,0.5,0.3,0.5c0.2,0,0.4-0.1,0.8-0.5
	c1.2-1.3,2-3.3,2-3.3c0.1-0.2,0.3-0.4,0.7-0.4h1.6c0.5,0,0.6,0.2,0.5,0.6c-0.2,0.9-2.2,3.7-2.2,3.7c-0.2,0.3-0.2,0.4,0,0.7
	c0.2,0.2,0.7,0.7,1.1,1.1c0.7,0.8,1.2,1.4,1.4,1.9C126.5,170.1,126.3,170.3,125.8,170.3z"/>
</svg>
