<?xml version="1.0" encoding="utf-8"?>
<!-- Generator: Adobe Illustrator 17.1.0, SVG Export Plug-In . SVG Version: 6.00 Build 0)  -->
<!DOCTYPE svg PUBLIC "-//W3C//DTD SVG 1.1//EN" "http://www.w3.org/Graphics/SVG/1.1/DTD/svg11.dtd">
<svg version="1.1" id="Layer_1" xmlns="http://www.w3.org/2000/svg" xmlns:xlink="http://www.w3.org/1999/xlink" x="0px" y="0px"
	 viewBox="194 -23.9 24 24" enable-background="new 194 -23.9 24 24" xml:space="preserve">
<path fill-opacity="0.9" d="M206-21.9c-5.5,0-10,4.5-10,10s4.5,10,10,10h5v-2h-5c-4.3,0-8-3.7-8-8s3.7-8,8-8s8,3.7,8,8v1.4
	c0,0.8-0.7,1.6-1.5,1.6s-1.5-0.8-1.5-1.6v-1.4c0-2.8-2.2-5-5-5s-5,2.2-5,5s2.2,5,5,5c1.4,0,2.6-0.6,3.5-1.5c0.7,0.9,1.8,1.5,3,1.5
	c2,0,3.5-1.6,3.5-3.6v-1.4C216-17.4,211.5-21.9,206-21.9z M206-8.9c-1.7,0-3-1.3-3-3s1.3-3,3-3s3,1.3,3,3S207.7-8.9,206-8.9z"/>
</svg>
