<?xml version="1.0" encoding="utf-8"?>
<!-- Generator: Adobe Illustrator 17.1.0, SVG Export Plug-In . SVG Version: 6.00 Build 0)  -->
<!DOCTYPE svg PUBLIC "-//W3C//DTD SVG 1.1//EN" "http://www.w3.org/Graphics/SVG/1.1/DTD/svg11.dtd">
<svg version="1.1" xmlns="http://www.w3.org/2000/svg" xmlns:xlink="http://www.w3.org/1999/xlink" x="0px" y="0px"
	 viewBox="136 184.7 24 24" enable-background="new 136 184.7 24 24" xml:space="preserve">
<g id="Layer_1">
	<g>
		<path d="M151.8,207l-3.5,0v-7.9c-0.1,0-0.3,0-0.4,0c-0.2,0-0.5,0-0.9,0h-0.5v-3.4h0.5c0.4,0,0.6,0,0.9,0c0.1,0,0.3,0,0.4,0v0
			c0-0.2,0-0.4,0-0.8c0-1.1,0.4-2,1-2.8c0.9-1.2,2.1-1.3,3-1.3c0.4,0,0.8,0,1.2,0.1c0.2,0,0.4,0,0.6,0l0.5,0v3l-0.3,0.2l-0.2,0
			l-0.5,0c-0.3,0-0.7,0-1,0c-0.3,0-0.7,0.2-0.7,0.6c0,0.4,0,0.6,0,0.8c0,0,0,0.1,0,0.1h3l-0.1,0.6c-0.1,0.5-0.1,0.9-0.2,1.3
			c-0.1,0.4-0.1,0.8-0.2,1.2l-0.1,0.4h-2.4V207z M149.3,206l1.5,0v-7.9h2.5c0-0.3,0.1-0.6,0.1-0.8c0-0.2,0.1-0.4,0.1-0.7h-2.8v-0.5
			c0-0.3,0-0.4,0-0.6c0-0.3,0-0.5,0-0.9c0.1-0.8,0.8-1.4,1.7-1.5c0.4,0,0.7,0,1.1,0l0.1,0v-1.4c-0.1,0-0.1,0-0.2,0
			c-0.4,0-0.8-0.1-1.1-0.1c-1,0-1.7,0.3-2.2,0.9c-0.5,0.6-0.8,1.4-0.8,2.2c0,0.4,0,0.5,0,0.8l0,1h-0.5c-0.4,0-0.6,0-0.9,0
			c-0.1,0-0.2,0-0.4,0v1.4c0.1,0,0.2,0,0.4,0c0.2,0,0.5,0,0.9,0h0.5V206z"/>
		<path d="M155.9,207h-15.8c-1.4,0-2.6-1.2-2.6-2.6V189c0-1.4,1.2-2.6,2.6-2.6h15.8c1.4,0,2.6,1.2,2.6,2.6v15.4
			C158.5,205.8,157.3,207,155.9,207z M140.1,187.4c-0.9,0-1.6,0.7-1.6,1.6v15.4c0,0.9,0.7,1.6,1.6,1.6h15.8c0.9,0,1.6-0.7,1.6-1.6
			V189c0-0.9-0.7-1.6-1.6-1.6H140.1z"/>
	</g>
</g>
<g id="Layer_2">
</g>
</svg>
