<?xml version="1.0" encoding="utf-8"?>
<!-- Generator: Adobe Illustrator 17.1.0, SVG Export Plug-In . SVG Version: 6.00 Build 0)  -->
<!DOCTYPE svg PUBLIC "-//W3C//DTD SVG 1.1//EN" "http://www.w3.org/Graphics/SVG/1.1/DTD/svg11.dtd">
<svg version="1.1" id="Layer_1" xmlns="http://www.w3.org/2000/svg" xmlns:xlink="http://www.w3.org/1999/xlink" x="0px" y="0px"
	 viewBox="194 -126 24 24" enable-background="new 194 -126 24 24" xml:space="preserve">
<path d="M200-116c-1.1,0-2,0.9-2,2s0.9,2,2,2s2-0.9,2-2S201.1-116,200-116z M212-116c-1.1,0-2,0.9-2,2s0.9,2,2,2s2-0.9,2-2
	S213.1-116,212-116z M206-116c-1.1,0-2,0.9-2,2s0.9,2,2,2s2-0.9,2-2S207.1-116,206-116z"/>
</svg>
