<?xml version="1.0" encoding="utf-8"?>
<!-- Generator: Adobe Illustrator 17.1.0, SVG Export Plug-In . SVG Version: 6.00 Build 0)  -->
<!DOCTYPE svg PUBLIC "-//W3C//DTD SVG 1.1//EN" "http://www.w3.org/Graphics/SVG/1.1/DTD/svg11.dtd">
<svg version="1.1" id="Layer_1" xmlns="http://www.w3.org/2000/svg" xmlns:xlink="http://www.w3.org/1999/xlink" x="0px" y="0px"
	 viewBox="281 184.7 24 24" enable-background="new 281 184.7 24 24" xml:space="preserve">
<path d="M284.7,204l-0.1,0.5l0,0L284.7,204z M301.3,204l0.1,0.5L301.3,204z M301.4,189.5l0.1-0.5L301.4,189.5z M284.6,189.5l0.1,0.5
	l0,0L284.6,189.5z M291,193.7l0.3-0.4l-0.8-0.5v0.9H291z M291,199.7h-0.5v0.9l0.8-0.5L291,199.7z M296,196.7l0.3,0.4l0.7-0.4
	l-0.7-0.4L296,196.7z M282.5,191.4v10.5h1v-10.5H282.5z M303.5,201.9v-10.5h-1v10.5H303.5z M284.6,204.5c5.5,1.1,11.3,1.1,16.8,0
	l-0.2-1c-5.4,1.1-11,1.1-16.4,0L284.6,204.5z M301.5,189c-5.6-1.2-11.4-1.2-17,0l0.2,1c5.5-1.2,11.1-1.2,16.6,0L301.5,189z
	 M303.5,191.4c0-1.2-0.8-2.2-2-2.5l-0.2,1c0.7,0.1,1.2,0.8,1.2,1.5H303.5z M302.5,201.9c0,0.8-0.5,1.4-1.3,1.6l0.2,1
	c1.2-0.2,2.1-1.3,2.1-2.6H302.5z M282.5,201.9c0,1.2,0.9,2.3,2.1,2.6l0.2-1c-0.8-0.2-1.3-0.8-1.3-1.6H282.5z M283.5,191.4
	c0-0.7,0.5-1.3,1.2-1.5l-0.2-1c-1.2,0.2-2,1.3-2,2.5H283.5z M290.5,193.7v6h1v-6H290.5z M291.3,200.1l5-3l-0.5-0.9l-5,3L291.3,200.1
	z M296.3,196.2l-5-3l-0.5,0.9l5,3L296.3,196.2z"/>
</svg>
