<?xml version="1.0" encoding="utf-8"?>
<!-- Generator: Adobe Illustrator 17.1.0, SVG Export Plug-In . SVG Version: 6.00 Build 0)  -->
<!DOCTYPE svg PUBLIC "-//W3C//DTD SVG 1.1//EN" "http://www.w3.org/Graphics/SVG/1.1/DTD/svg11.dtd">
<svg version="1.1" id="Layer_1" xmlns="http://www.w3.org/2000/svg" xmlns:xlink="http://www.w3.org/1999/xlink" x="0px" y="0px"
	 viewBox="107 -93.5 24 24" enable-background="new 107 -93.5 24 24" xml:space="preserve">
<path d="M127-89.5h-16c-1.1,0-2,0.9-2,2l0,12c0,1.1,0.9,2,2,2h16c1.1,0,2-0.9,2-2v-12C129-88.6,128.1-89.5,127-89.5z M115.5-78.5
	h-1.2l-2.6-3.5v3.5h-1.3v-6h1.3l2.5,3.5v-3.5h1.3V-78.5z M120.5-83.2H118v1.1h2.5v1.3H118v1.1h2.5v1.3h-4v-6h4V-83.2z M127.5-79.5
	c0,0.6-0.4,1-1,1h-4c-0.6,0-1-0.4-1-1v-5h1.3v4.5h1.1v-3.5h1.3v3.5h1.1v-4.5h1.3V-79.5z"/>
</svg>
