<?xml version="1.0" encoding="utf-8"?>
<!-- Generator: Adobe Illustrator 17.1.0, SVG Export Plug-In . SVG Version: 6.00 Build 0)  -->
<!DOCTYPE svg PUBLIC "-//W3C//DTD SVG 1.1//EN" "http://www.w3.org/Graphics/SVG/1.1/DTD/svg11.dtd">
<svg version="1.1" xmlns="http://www.w3.org/2000/svg" xmlns:xlink="http://www.w3.org/1999/xlink" x="0px" y="0px"
	 viewBox="165 184.7 24 24" enable-background="new 165 184.7 24 24" xml:space="preserve">
<g id="Layer_1">
	<path d="M171.3,187.7h11.4v-1h-11.4V187.7z M186,191v11.4h1V191H186z M182.7,205.8h-11.4v1h11.4V205.8z M168,202.4V191h-1v11.4H168
		z M171.3,205.8c-1.8,0-3.3-1.5-3.3-3.3h-1c0,2.4,1.9,4.3,4.3,4.3V205.8z M186,202.4c0,1.8-1.5,3.3-3.3,3.3v1c2.4,0,4.3-1.9,4.3-4.3
		H186z M182.7,187.7c1.8,0,3.3,1.5,3.3,3.3h1c0-2.4-1.9-4.3-4.3-4.3V187.7z M171.3,186.7c-2.4,0-4.3,1.9-4.3,4.3h1
		c0-1.8,1.5-3.3,3.3-3.3V186.7z M177,200c-1.8,0-3.3-1.5-3.3-3.3h-1c0,2.4,1.9,4.3,4.3,4.3V200z M180.3,196.7c0,1.8-1.5,3.3-3.3,3.3
		v1c2.4,0,4.3-1.9,4.3-4.3H180.3z M177,193.4c1.8,0,3.3,1.5,3.3,3.3h1c0-2.4-1.9-4.3-4.3-4.3V193.4z M177,192.4
		c-2.4,0-4.3,1.9-4.3,4.3h1c0-1.8,1.5-3.3,3.3-3.3V192.4z M182.2,192.4h1v-1h-1V192.4z"/>
</g>
<g id="Layer_2">
</g>
</svg>
