<?xml version="1.0" encoding="utf-8"?>
<!-- Generator: Adobe Illustrator 17.1.0, SVG Export Plug-In . SVG Version: 6.00 Build 0)  -->
<!DOCTYPE svg PUBLIC "-//W3C//DTD SVG 1.1//EN" "http://www.w3.org/Graphics/SVG/1.1/DTD/svg11.dtd">
<svg version="1.1" xmlns="http://www.w3.org/2000/svg" xmlns:xlink="http://www.w3.org/1999/xlink" x="0px" y="0px"
	 viewBox="136 -23.9 24 24" enable-background="new 136 -23.9 24 24" xml:space="preserve">
<g id="Layer_1">
	<g>
		<path d="M148-17.7c-4.3,0-8,2.3-10,5.8c2,3.5,5.7,5.8,10,5.8s8-2.3,10-5.8C156-15.4,152.3-17.7,148-17.7z M148.1-7.9
			c-2.2,0-4-1.8-4-4s1.8-4,4-4s4,1.8,4,4S150.3-7.9,148.1-7.9z"/>
		<path d="M146-11.2c-0.4,0-0.6-0.2-0.6-0.6c0-1.5,1.3-2.7,2.7-2.7c0.4,0,0.6,0.2,0.6,0.6c0,0.4-0.2,0.6-0.6,0.6
			c-0.8,0-1.5,0.7-1.5,1.5C146.6-11.5,146.3-11.2,146-11.2z"/>
	</g>
</g>
<g id="Layer_2">
</g>
</svg>
