<?xml version="1.0" encoding="utf-8"?>
<!-- Generator: Adobe Illustrator 17.1.0, SVG Export Plug-In . SVG Version: 6.00 Build 0)  -->
<!DOCTYPE svg PUBLIC "-//W3C//DTD SVG 1.1//EN" "http://www.w3.org/Graphics/SVG/1.1/DTD/svg11.dtd">
<svg version="1.1" id="Layer_1" xmlns="http://www.w3.org/2000/svg" xmlns:xlink="http://www.w3.org/1999/xlink" x="0px" y="0px"
	 viewBox="194 -93.5 24 24" enable-background="new 194 -93.5 24 24" xml:space="preserve">
<path d="M210.1-85.5l-5.9,5.9l-3.2-3.2l-1.3,1.3l4.5,4.5l7.2-7.2L210.1-85.5z M206-90.5c-5,0-9,4-9,9c0,5,4,9,9,9c5,0,9-4,9-9
	C215-86.5,211-90.5,206-90.5z M206-74.3c-4,0-7.2-3.2-7.2-7.2c0-4,3.2-7.2,7.2-7.2s7.2,3.2,7.2,7.2C213.2-77.5,210-74.3,206-74.3z"
	/>
</svg>
