<?xml version="1.0" encoding="utf-8"?>
<!-- Generator: Adobe Illustrator 17.1.0, SVG Export Plug-In . SVG Version: 6.00 Build 0)  -->
<!DOCTYPE svg PUBLIC "-//W3C//DTD SVG 1.1//EN" "http://www.w3.org/Graphics/SVG/1.1/DTD/svg11.dtd">
<svg version="1.1" xmlns="http://www.w3.org/2000/svg" xmlns:xlink="http://www.w3.org/1999/xlink" x="0px" y="0px"
	 viewBox="339 -23.9 24 24" enable-background="new 339 -23.9 24 24" xml:space="preserve">
<g id="Layer_1">
	<path d="M356.4-21.9c0.3,0.1,0.5,0.1,0.8,0.2c2.7,0.9,3.5,4.2,1.5,6.2c-2.8,2.9-5.7,5.7-8.5,8.5c-0.7,0.7-1.6,0.9-2.6,0.6
		c-1-0.3-1.5-1-1.7-2c-0.1-0.8,0.1-1.5,0.6-2c0.5-0.6,1.1-1.1,1.7-1.7c0.8-0.8,1.6-1.6,2.5-2.5c0.3-0.3,0.7-0.4,1-0.2
		c0.4,0.2,0.6,0.8,0.2,1.2c-0.1,0.1-0.1,0.1-0.2,0.2c-1.3,1.3-2.6,2.6-3.9,3.9c-0.2,0.2-0.4,0.5-0.3,0.8c0.1,0.6,0.8,0.9,1.3,0.5
		c0.1,0,0.1-0.1,0.2-0.2c2.8-2.8,5.6-5.6,8.4-8.4c1-1,0.9-2.5-0.2-3.3c-0.8-0.6-1.9-0.5-2.6,0.2c-0.1,0.1-0.1,0.1-0.2,0.2
		c-3.4,3.4-6.8,6.8-10.1,10.2c-1.1,1.1-1.4,2.6-0.7,3.9c0.9,1.9,3.6,2.5,5.2,1c0.1-0.1,0.3-0.2,0.4-0.4c3.2-3.2,6.5-6.5,9.7-9.7
		c0.2-0.2,0.5-0.4,0.9-0.3c0.6,0.1,0.9,0.8,0.5,1.3c-0.1,0.1-0.1,0.1-0.2,0.2c-3.3,3.3-6.5,6.6-9.8,9.9c-0.7,0.7-1.6,1.2-2.6,1.5
		c-0.2,0-0.4,0.1-0.6,0.1c-0.3,0-0.5,0-0.8,0c-0.2,0-0.4-0.1-0.7-0.1c-2.3-0.5-3.9-2.5-3.9-4.9c0-1.4,0.5-2.6,1.5-3.6
		c3.4-3.4,6.8-6.8,10.2-10.3c0.5-0.5,1.2-0.9,1.9-1.1c0.1,0,0.3-0.1,0.4-0.1C355.9-21.9,356.1-21.9,356.4-21.9z"/>
</g>
<g id="Layer_2">
</g>
</svg>
