<?xml version="1.0" encoding="utf-8"?>
<!-- Generator: Adobe Illustrator 17.1.0, SVG Export Plug-In . SVG Version: 6.00 Build 0)  -->
<!DOCTYPE svg PUBLIC "-//W3C//DTD SVG 1.1//EN" "http://www.w3.org/Graphics/SVG/1.1/DTD/svg11.dtd">
<svg version="1.1" xmlns="http://www.w3.org/2000/svg" xmlns:xlink="http://www.w3.org/1999/xlink" x="0px" y="0px"
	 viewBox="107 184.7 24 24" enable-background="new 107 184.7 24 24" xml:space="preserve">
<g id="Layer_1">
	<g>
		<path d="M119.1,201.1c-1,0-1.9-0.2-2.7-0.7c-0.7-0.4-1.4-1-2-1.9c-0.9-1.2-1.7-2.6-2.5-4.5c-0.2-0.4-0.1-0.7,0-0.9
			c0.1-0.2,0.3-0.4,0.8-0.4c0.6,0,1.3,0,1.9,0c0.4,0,0.8,0.3,1,0.7c0.4,0.9,0.8,1.6,1.2,2.3c0.1,0.1,0.1,0.2,0.2,0.2
			c0,0,0-0.1,0-0.1c0.1-0.6,0-1.2,0-1.6c0-0.2-0.1-0.2-0.2-0.3c-0.3-0.1-0.5-0.2-0.5-0.4c-0.1-0.2,0-0.4,0.2-0.6
			c0.2-0.2,0.5-0.5,1-0.5h2.2c0.8,0.1,0.9,0.6,1,1l0,2.5c0.5-0.5,0.8-1.1,1-1.7c0.1-0.3,0.3-0.6,0.4-0.9c0.2-0.5,0.6-0.7,0.9-0.7
			l2.1,0c0.1,0,0.2,0,0.3,0c0.1,0,0.5,0.1,0.7,0.4c0.2,0.3,0.1,0.7,0,0.8c-0.2,0.6-0.5,1.1-0.9,1.6c-0.2,0.3-0.4,0.5-0.5,0.7
			c-0.2,0.3-0.4,0.5-0.6,0.8c-0.1,0.2-0.1,0.2-0.1,0.2c0,0,0,0,0.2,0.2l0.3,0.3c0.3,0.3,0.7,0.6,1,1c0.2,0.2,0.4,0.5,0.5,0.8
			c0.2,0.3,0.2,0.7,0,1c-0.2,0.3-0.4,0.4-0.7,0.5l-2,0c0,0-0.1,0-0.1,0c-0.5,0-1-0.2-1.5-0.7c-0.2-0.2-0.4-0.4-0.5-0.6l-0.3-0.3
			c-0.1-0.1-0.1-0.2-0.2-0.2c-0.1,0.2-0.1,0.4-0.1,0.6c0,0.7-0.4,1-1.1,1.1C119.4,201.1,119.3,201.1,119.1,201.1z M112.9,193.8
			c0.8,1.8,1.5,3,2.3,4.1c0.6,0.7,1.1,1.3,1.7,1.6c0.7,0.4,1.6,0.6,2.5,0.5c0.1,0,0.1,0,0.1,0c0,0,0-0.1,0-0.1
			c0-0.3,0.1-0.8,0.3-1.1c0.3-0.5,0.9-0.7,1.4-0.3c0.2,0.1,0.3,0.3,0.4,0.4l0.3,0.3c0.2,0.2,0.3,0.4,0.5,0.5
			c0.2,0.2,0.5,0.4,0.8,0.4l0.1,0h1.8c-0.1-0.3-0.3-0.5-0.4-0.6c-0.3-0.3-0.6-0.6-0.9-0.9l-0.4-0.3c-0.6-0.6-0.6-1.1-0.2-1.7
			c0.2-0.3,0.4-0.5,0.6-0.8c0.2-0.2,0.3-0.4,0.5-0.7c0.3-0.4,0.6-0.8,0.7-1.2c0,0,0,0,0,0l-2.1,0c-0.2,0.4-0.3,0.7-0.5,1
			c-0.3,0.6-0.7,1.4-1.3,2c-0.1,0.1-0.4,0.4-0.7,0.4l-0.2,0c-0.6-0.2-0.7-0.9-0.7-1.1l0-2.4c0-0.1,0-0.1,0-0.1l-1.8,0
			c0.1,0.2,0.2,0.4,0.2,0.6c0.1,0.6,0.1,1.2,0,1.9c0,0.3-0.1,0.5-0.1,0.7c-0.2,0.5-0.6,0.5-0.7,0.5c-0.2,0-0.3-0.1-0.5-0.2
			c-0.3-0.2-0.5-0.5-0.6-0.7c-0.5-0.7-1-1.6-1.3-2.5l-0.1-0.6l0,0.5C114,193.8,113.4,193.8,112.9,193.8z"/>
		<path d="M126.9,207h-15.8c-1.4,0-2.6-1.2-2.6-2.6V189c0-1.4,1.2-2.6,2.6-2.6h15.8c1.4,0,2.6,1.2,2.6,2.6v15.4
			C129.5,205.8,128.3,207,126.9,207z M111.1,187.4c-0.9,0-1.6,0.7-1.6,1.6v15.4c0,0.9,0.7,1.6,1.6,1.6h15.8c0.9,0,1.6-0.7,1.6-1.6
			V189c0-0.9-0.7-1.6-1.6-1.6H111.1z"/>
	</g>
</g>
<g id="Layer_2">
</g>
</svg>
