<?xml version="1.0" encoding="utf-8"?>
<!-- Generator: Adobe Illustrator 17.1.0, SVG Export Plug-In . SVG Version: 6.00 Build 0)  -->
<!DOCTYPE svg PUBLIC "-//W3C//DTD SVG 1.1//EN" "http://www.w3.org/Graphics/SVG/1.1/DTD/svg11.dtd">
<svg version="1.1" id="Layer_1" xmlns="http://www.w3.org/2000/svg" xmlns:xlink="http://www.w3.org/1999/xlink" x="0px" y="0px"
	 viewBox="136 153.6 24 24" enable-background="new 136 153.6 24 24" xml:space="preserve">
<path d="M154,155.6h-12c-2.2,0-4,1.8-4,4v12c0,2.2,1.8,4,4,4h4.4v-7h-2.3V166h2.3v-1.9c0-2.2,1.4-3.4,3.5-3.4c1,0,2,0.2,2,0.2v2.1
	h-1.2c-1.1,0-1.5,0.7-1.5,1.4v1.6h2.5l-0.4,2.5h-2.1v7h4.7c2.2,0,4-1.8,4-4v-12C158,157.3,156.2,155.6,154,155.6z"/>
</svg>
