<?xml version="1.0" encoding="utf-8"?>
<!-- Generator: Adobe Illustrator 17.1.0, SVG Export Plug-In . SVG Version: 6.00 Build 0)  -->
<!DOCTYPE svg PUBLIC "-//W3C//DTD SVG 1.1//EN" "http://www.w3.org/Graphics/SVG/1.1/DTD/svg11.dtd">
<svg version="1.1" xmlns="http://www.w3.org/2000/svg" xmlns:xlink="http://www.w3.org/1999/xlink" x="0px" y="0px"
	 viewBox="107 -23.9 24 24" enable-background="new 107 -23.9 24 24" xml:space="preserve">
<g id="Layer_1">
	<g>
		<path fill="#272B37" d="M128.6-4.1l-5-5c1-1.3,1.5-3,1.5-4.7c0-4.4-3.6-8.1-8.1-8.1s-8.1,3.6-8.1,8.1s3.6,8.1,8.1,8.1
			c1.8,0,3.4-0.6,4.7-1.5l5,5c0.3,0.3,0.6,0.4,0.9,0.4c0.3,0,0.7-0.1,0.9-0.4C129.1-2.7,129.1-3.6,128.6-4.1z M111.6-13.8
			c0-3,2.5-5.5,5.5-5.5c3,0,5.5,2.5,5.5,5.5s-2.5,5.5-5.5,5.5C114-8.3,111.6-10.8,111.6-13.8z"/>
		<path fill="#272B37" d="M128.6-4.1l-5-5c1-1.3,1.5-3,1.5-4.7c0-4.4-3.6-8.1-8.1-8.1s-8.1,3.6-8.1,8.1s3.6,8.1,8.1,8.1
			c1.8,0,3.4-0.6,4.7-1.5l5,5c0.3,0.3,0.6,0.4,0.9,0.4c0.3,0,0.7-0.1,0.9-0.4C129.1-2.7,129.1-3.6,128.6-4.1z M111.6-13.8
			c0-3,2.5-5.5,5.5-5.5c3,0,5.5,2.5,5.5,5.5s-2.5,5.5-5.5,5.5C114-8.3,111.6-10.8,111.6-13.8z"/>
		<g>
			<path d="M128.6-4.1l-5-5c1-1.3,1.5-3,1.5-4.7c0-4.4-3.6-8.1-8.1-8.1s-8.1,3.6-8.1,8.1s3.6,8.1,8.1,8.1c1.8,0,3.4-0.6,4.7-1.5l5,5
				c0.3,0.3,0.6,0.4,0.9,0.4c0.3,0,0.7-0.1,0.9-0.4C129.1-2.7,129.1-3.6,128.6-4.1z M111.6-13.8c0-3,2.5-5.5,5.5-5.5
				c3,0,5.5,2.5,5.5,5.5s-2.5,5.5-5.5,5.5C114-8.3,111.6-10.8,111.6-13.8z"/>
		</g>
	</g>
</g>
<g id="Layer_2">
</g>
</svg>
