<?xml version="1.0" encoding="utf-8"?>
<!-- Generator: Adobe Illustrator 17.1.0, SVG Export Plug-In . SVG Version: 6.00 Build 0)  -->
<!DOCTYPE svg PUBLIC "-//W3C//DTD SVG 1.1//EN" "http://www.w3.org/Graphics/SVG/1.1/DTD/svg11.dtd">
<svg version="1.1" xmlns="http://www.w3.org/2000/svg" xmlns:xlink="http://www.w3.org/1999/xlink" x="0px" y="0px"
	 viewBox="281 184.7 24 24" enable-background="new 281 184.7 24 24" xml:space="preserve">
<g id="Layer_1">
	<g>
		<path d="M299.9,196.2c0.3,0,0.6,0.1,0.8,0.3c0.8,0.8,1.7,1.7,2.5,2.5c0.6,0.6,0.4,1.6-0.4,1.9c-0.4,0.1-0.8,0.1-1.1-0.2
			c-0.2-0.2-0.4-0.4-0.6-0.6c-0.1-0.1-0.1-0.1-0.2,0c-1.2,1.1-2.6,1.9-4.1,2.5c-1.5,0.5-3.1,0.7-4.7,0.6c-2.2-0.2-4.2-0.9-6-2.2
			c-0.3-0.2-0.6-0.4-0.8-0.7c-0.2-0.2-0.2-0.2-0.4,0c-0.1,0.1-0.3,0.3-0.4,0.4c-0.4,0.3-0.8,0.4-1.2,0.2c-0.4-0.2-0.6-0.6-0.6-1.1
			c0-0.3,0.1-0.5,0.3-0.7c0.8-0.8,1.7-1.7,2.5-2.5c0.5-0.5,1.2-0.4,1.6,0c0.4,0.4,0.4,1.1,0,1.6c-0.1,0.1-0.2,0.2-0.3,0.3
			c-0.1,0.1-0.1,0.2,0,0.2c0.6,0.6,1.3,1,2.1,1.4c1.6,0.8,3.4,1.1,5.2,0.9c2-0.2,3.8-1,5.3-2.4c0.1-0.1,0.1-0.2,0-0.2
			c-0.2-0.2-0.5-0.4-0.5-0.8C298.6,196.9,299.1,196.2,299.9,196.2z"/>
		<path d="M291,191.8c0,0.9-0.8,1.7-1.7,1.7c-0.9,0-1.7-0.8-1.7-1.7c0-0.9,0.8-1.7,1.7-1.7C290.2,190.1,291,190.9,291,191.8z"/>
		<path d="M296.8,190.1c0.9,0,1.7,0.8,1.7,1.7c0,0.9-0.8,1.7-1.7,1.7c-0.9,0-1.7-0.8-1.7-1.7C295,190.8,295.8,190.1,296.8,190.1z"/>
	</g>
</g>
<g id="Layer_2">
</g>
</svg>
