<?xml version="1.0" encoding="utf-8"?>
<!-- Generator: Adobe Illustrator 17.1.0, SVG Export Plug-In . SVG Version: 6.00 Build 0)  -->
<!DOCTYPE svg PUBLIC "-//W3C//DTD SVG 1.1//EN" "http://www.w3.org/Graphics/SVG/1.1/DTD/svg11.dtd">
<svg version="1.1" xmlns="http://www.w3.org/2000/svg" xmlns:xlink="http://www.w3.org/1999/xlink" x="0px" y="0px"
	 viewBox="397.1 -23.9 24 24" enable-background="new 397.1 -23.9 24 24" xml:space="preserve">
<g id="Layer_1">
	<path d="M416-20.3v-0.6c0-0.5-0.4-1-1-1c-0.5,0-0.9,0.4-0.9,1v0.8h-9.6v-0.8c0-0.6-0.4-1-1-1c-0.5,0-0.9,0.4-0.9,1v0.8h-3.5v18.2
		h20v-18.4H416z M404.9-4.6h-3v-3.3h3.1v3.3H404.9z M404.9-8.8h-3v-3.1h3.1v3.1H404.9z M404.9-12.8h-3v-3.3h3.1v3.3H404.9z
		 M408.7-4.6h-3.1v-3.3h3.1V-4.6z M408.7-8.8h-3.1v-3.1h3.1V-8.8z M408.7-12.8h-3.1v-3.3h3.1V-12.8z M412.6-4.6h-3.1v-3.3h3.1V-4.6z
		 M412.6-8.8h-3.1v-3.1h3.1V-8.8z M412.6-12.8h-3.1v-3.3h3.1V-12.8z M416.4-4.6h-3.1v-3.3h3.1V-4.6z M416.4-8.8h-3.1v-3.1h3.1V-8.8z
		 M416.4-12.8h-3.1v-3.3h3.1V-12.8z"/>
</g>
<g id="Layer_2">
</g>
</svg>
