<?xml version="1.0" encoding="utf-8"?>
<!-- Generator: Adobe Illustrator 17.1.0, SVG Export Plug-In . SVG Version: 6.00 Build 0)  -->
<!DOCTYPE svg PUBLIC "-//W3C//DTD SVG 1.1//EN" "http://www.w3.org/Graphics/SVG/1.1/DTD/svg11.dtd">
<svg version="1.1" xmlns="http://www.w3.org/2000/svg" xmlns:xlink="http://www.w3.org/1999/xlink" x="0px" y="0px"
	 viewBox="368 -23.9 24 24" enable-background="new 368 -23.9 24 24" xml:space="preserve">
<g id="Layer_1">
	<g>
		<path d="M381.7-21.9c0.7,0.1,1.2,0.6,1.7,1.1c1.1,1,2.1,2.1,3.1,3.1c0.3,0.3,0.6,0.7,0.9,1.1c0.2,0.3,0.2,0.6,0.2,0.9
			c0,2.8,0,5.6,0,8.4c0,0.8,0,1.6,0,2.3c0,1.4-1.1,2.7-2.5,2.9c-0.2,0-0.5,0.1-0.7,0.1c-1,0-2,0-3,0c-1,0-2,0-3,0
			c-1.1,0-2.1,0-3.2,0c-0.7,0-1.4-0.3-1.9-0.8c-0.5-0.5-0.9-1.1-1-1.8c0-0.1,0-0.3,0-0.4c0-4.6,0-9.3,0-13.9c0-1.3,0.9-2.5,2.2-2.9
			c0.2-0.1,0.4-0.1,0.6-0.1C377.3-21.9,379.5-21.9,381.7-21.9z M373.8-11.9c0,2.3,0,4.6,0,6.9c0,0.3,0.1,0.6,0.3,0.9
			c0.3,0.4,0.7,0.7,1.3,0.7c1.7,0,3.3,0,5,0c1.4,0,2.9,0,4.3,0c0.3,0,0.5-0.1,0.7-0.2c0.5-0.3,0.8-0.8,0.8-1.4c0-3,0-6,0-9
			c0-0.3,0-0.6,0-0.9c0-0.4-0.2-0.6-0.6-0.7c-0.2,0-0.4-0.1-0.5-0.1c-0.9,0-1.8,0-2.7,0c-0.1,0-0.2,0-0.3-0.1
			c-0.3-0.1-0.5-0.4-0.5-0.8c0-0.9,0-1.9,0-2.8c0-0.2,0-0.5-0.2-0.7c-0.1-0.2-0.3-0.3-0.5-0.3c-0.7,0-1.5,0-2.2,0
			c-1.1,0-2.2,0-3.3,0c-0.3,0-0.6,0.1-0.8,0.2c-0.5,0.3-0.7,0.8-0.7,1.3C373.8-16.4,373.8-14.1,373.8-11.9z"/>
		<path d="M380-8c1.3,0,2.6,0,3.9,0c0.5,0,0.8,0.3,0.8,0.8c0,0.4-0.3,0.8-0.8,0.8c-2.5,0-5.1,0-7.6,0c-0.1,0-0.3,0-0.4,0
			c-0.4-0.1-0.6-0.5-0.5-0.9c0.1-0.4,0.4-0.6,0.8-0.6C377.4-8,378.7-8,380-8z"/>
		<path d="M380-14.2c1.3,0,2.6,0,3.9,0c0.4,0,0.7,0.3,0.8,0.7c0,0.4-0.3,0.8-0.7,0.8c-0.8,0-1.6,0-2.4,0c-1.8,0-3.6,0-5.4,0
			c-0.4,0-0.8-0.2-0.8-0.7c-0.1-0.4,0.3-0.9,0.7-0.9c1.2,0,2.4,0,3.6,0C379.7-14.2,379.8-14.2,380-14.2z"/>
		<path d="M379.2-9.5c-1,0-2,0-3,0c-0.2,0-0.3,0-0.5-0.1c-0.3-0.2-0.5-0.5-0.4-0.9c0.1-0.3,0.4-0.6,0.7-0.6c1.1,0,2.2,0,3.2,0
			c1,0,2,0,2.9,0c0.5,0,0.8,0.3,0.8,0.8c0,0.4-0.3,0.8-0.8,0.8C381.3-9.5,380.2-9.5,379.2-9.5z"/>
	</g>
</g>
<g id="Layer_2">
</g>
</svg>
