<?xml version="1.0" encoding="utf-8"?>
<!-- Generator: Adobe Illustrator 17.1.0, SVG Export Plug-In . SVG Version: 6.00 Build 0)  -->
<!DOCTYPE svg PUBLIC "-//W3C//DTD SVG 1.1//EN" "http://www.w3.org/Graphics/SVG/1.1/DTD/svg11.dtd">
<svg version="1.1" id="Layer_1" xmlns="http://www.w3.org/2000/svg" xmlns:xlink="http://www.w3.org/1999/xlink" x="0px" y="0px"
	 viewBox="136 81.6 24 24" enable-background="new 136 81.6 24 24" xml:space="preserve">
<path d="M138,92.8c0-3,2.5-5.5,5.5-5.5H154c2.2,0,4,1.8,4,4c0,2.2-1.8,4-4,4h-8.5c-1.4,0-2.5-1.1-2.5-2.5c0-1.4,1.1-2.5,2.5-2.5h7.5
	v2h-7.6c-0.6,0-0.6,1,0,1h8.6c1.1,0,2-0.9,2-2c0-1.1-0.9-2-2-2h-10.5c-1.9,0-3.5,1.6-3.5,3.5s1.6,3.5,3.5,3.5h9.5v2h-9.5
	C140.5,98.3,138,95.8,138,92.8z"/>
</svg>
