<?xml version="1.0" encoding="utf-8"?>
<!-- Generator: Adobe Illustrator 17.1.0, SVG Export Plug-In . SVG Version: 6.00 Build 0)  -->
<!DOCTYPE svg PUBLIC "-//W3C//DTD SVG 1.1//EN" "http://www.w3.org/Graphics/SVG/1.1/DTD/svg11.dtd">
<svg version="1.1" xmlns="http://www.w3.org/2000/svg" xmlns:xlink="http://www.w3.org/1999/xlink" x="0px" y="0px"
	 viewBox="194 184.7 24 24" enable-background="new 194 184.7 24 24" xml:space="preserve">
<g id="Layer_1">
	<path d="M215.5,188.4l0.5,0c0-0.2-0.1-0.4-0.3-0.4c-0.2-0.1-0.4,0-0.5,0.1L215.5,188.4z M214.6,192.4c0-0.3-0.2-0.5-0.5-0.5
		c-0.3,0-0.5,0.2-0.5,0.5H214.6z M206,193.6v0.5h0.5v-0.5H206z M197.8,188.4l0.4-0.2c-0.1-0.2-0.2-0.3-0.4-0.3
		c-0.2,0-0.4,0.1-0.5,0.3L197.8,188.4z M203.1,200.8l0.3,0.3c0.1-0.1,0.2-0.3,0.1-0.4c0-0.2-0.2-0.3-0.3-0.3L203.1,200.8z
		 M196.5,203.3v-0.5c-0.2,0-0.4,0.1-0.5,0.3c-0.1,0.2,0,0.4,0.2,0.5L196.5,203.3z M213.1,189.7l-0.4,0.3l0.2,0.2l0.3,0L213.1,189.7z
		 M215,188.4c0.1,1.1,0,1.7-0.2,2.3c-0.2,0.5-0.5,0.9-1,1.4l0.7,0.7c0.6-0.6,1-1.1,1.3-1.8c0.2-0.7,0.3-1.5,0.2-2.6L215,188.4z
		 M214.6,193.4v-0.9h-1v0.9H214.6z M214.6,192.5L214.6,192.5l-1-0.1v0.1H214.6z M205.5,192.7v1h1v-1H205.5z M210.1,187.9
		c-2.6,0-4.6,2.2-4.6,4.8h1c0-2,1.6-3.8,3.6-3.8V187.9z M213.7,193.4c0,6-5,11.2-11,11.2v1c6.5,0,11.9-5.6,11.9-12.1H213.7z
		 M197.4,188.5c0.7,1.9,3.5,5.5,8.6,5.5v-1c-4.6,0-7.1-3.2-7.7-4.9L197.4,188.5z M197.4,188.2c-1.4,2.8-1.6,5.5-0.7,7.9
		c1,2.3,3.1,4.1,6.3,5.2l0.3-0.9c-3-1-4.8-2.6-5.7-4.6c-0.8-2-0.7-4.4,0.6-7.1L197.4,188.2z M202.8,200.4c-0.8,0.8-3.2,2.4-6.3,2.4
		v1c3.4,0,6-1.7,7-2.7L202.8,200.4z M213.4,189.4c-0.8-0.9-2-1.5-3.3-1.5v1c1,0,2,0.4,2.6,1.2L213.4,189.4z M213.2,190.2
		c1-0.1,2-0.7,2.7-1.5l-0.7-0.6c-0.6,0.7-1.4,1.1-2.1,1.2L213.2,190.2z M196.2,203.7c2.1,1.4,4.2,1.8,6.5,1.8v-1
		c-2.1,0-4-0.3-5.9-1.6L196.2,203.7z"/>
</g>
<g id="Layer_2">
</g>
</svg>
