<?xml version="1.0" encoding="utf-8"?>
<!-- Generator: Adobe Illustrator 17.1.0, SVG Export Plug-In . SVG Version: 6.00 Build 0)  -->
<!DOCTYPE svg PUBLIC "-//W3C//DTD SVG 1.1//EN" "http://www.w3.org/Graphics/SVG/1.1/DTD/svg11.dtd">
<svg version="1.1" id="Layer_1" xmlns="http://www.w3.org/2000/svg" xmlns:xlink="http://www.w3.org/1999/xlink" x="0px" y="0px"
	 viewBox="165 -93.5 24 24" enable-background="new 165 -93.5 24 24" xml:space="preserve">
<g>
	<path d="M177-90.5c-5,0-9,4-9,9c0,5,4,9,9,9c5,0,9-4,9-9C186-86.5,182-90.5,177-90.5z M177-74.3c-4,0-7.2-3.2-7.2-7.2
		c0-4,3.2-7.2,7.2-7.2s7.2,3.2,7.2,7.2C184.2-77.5,181-74.3,177-74.3z"/>
	<path d="M177.4-86h-1.3v5.4l4.7,2.8l0.7-1.1l-4.1-2.4V-86z"/>
</g>
</svg>
