<?xml version="1.0" encoding="utf-8"?>
<!-- Generator: Adobe Illustrator 17.1.0, SVG Export Plug-In . SVG Version: 6.00 Build 0)  -->
<!DOCTYPE svg PUBLIC "-//W3C//DTD SVG 1.1//EN" "http://www.w3.org/Graphics/SVG/1.1/DTD/svg11.dtd">
<svg version="1.1" id="Layer_1" xmlns="http://www.w3.org/2000/svg" xmlns:xlink="http://www.w3.org/1999/xlink" x="0px" y="0px"
	 viewBox="223 -23.9 24 24" enable-background="new 223 -23.9 24 24" xml:space="preserve">
<path d="M229.6-13.1c1.4,2.8,3.8,5.1,6.6,6.6l2.2-2.2c0.3-0.3,0.7-0.4,1-0.2c1.1,0.4,2.3,0.6,3.6,0.6c0.6,0,1,0.4,1,1v3.5
	c0,0.5-0.4,1-1,1c-9.4,0-17-7.6-17-17c0-0.5,0.4-1,1-1h3.5c0.6,0,1,0.5,1,1c0,1.3,0.2,2.4,0.6,3.6c0.1,0.4,0,0.7-0.3,1L229.6-13.1z"
	/>
</svg>
