<?xml version="1.0" encoding="utf-8"?>
<!-- Generator: Adobe Illustrator 17.1.0, SVG Export Plug-In . SVG Version: 6.00 Build 0)  -->
<!DOCTYPE svg PUBLIC "-//W3C//DTD SVG 1.1//EN" "http://www.w3.org/Graphics/SVG/1.1/DTD/svg11.dtd">
<svg version="1.1" xmlns="http://www.w3.org/2000/svg" xmlns:xlink="http://www.w3.org/1999/xlink" x="0px" y="0px"
	 viewBox="368 184.7 24 24" enable-background="new 368 184.7 24 24" xml:space="preserve">
<g id="Layer_1">
	<g>
		<path d="M374.7,205.2c0-0.4,0-0.7,0-1.1c0-0.1,0-0.2-0.1-0.2c-0.5-0.2-1-0.4-1.5-0.6c-0.7-0.4-1.4-0.9-1.8-1.6
			c-0.6-0.8-1-1.8-1.2-2.8c-0.2-0.8-0.2-1.6-0.3-2.4c0-0.4-0.1-0.8,0-1.2c0.1-1,0.1-2,0.2-3c0.1-0.7,0.3-1.5,0.6-2.2
			c0.3-0.7,0.7-1.4,1.3-1.9c0.3-0.3,0.7-0.5,1-0.7c0.7-0.4,1.4-0.7,2.2-0.9c0.6-0.2,1.2-0.2,1.8-0.4c1-0.2,2.1-0.2,3.1-0.2
			c0.8,0,1.7,0,2.5,0.1c0.8,0.1,1.7,0.3,2.5,0.5c0.8,0.2,1.6,0.5,2.3,0.9c0.8,0.4,1.4,1.1,1.8,1.8c0.5,0.9,0.8,1.8,1,2.8
			c0.2,1.1,0.3,2.3,0.2,3.5c0,0.8-0.1,1.6-0.2,2.4c-0.1,0.9-0.3,1.8-0.7,2.6c-0.3,0.6-0.6,1.1-1.1,1.6c-0.6,0.5-1.2,1-1.9,1.2
			c-0.5,0.2-1,0.4-1.5,0.5c-0.7,0.2-1.4,0.3-2.1,0.4c-0.4,0.1-0.8,0.1-1.1,0.1c-0.8,0-1.6,0.1-2.3,0.1c-0.3,0-0.6-0.1-1-0.1
			c-0.1,0-0.2,0-0.2,0.1c-0.3,0.3-0.6,0.6-0.9,0.9c-0.4,0.4-0.8,0.8-1.2,1.3c-0.3,0.3-0.7,0.4-1.1,0.1c-0.3-0.2-0.3-0.5-0.4-0.8
			c0-0.2,0-0.4,0-0.5C374.7,205.6,374.7,205.4,374.7,205.2z M375.4,206.6c0.1-0.1,0.1-0.1,0.2-0.1c0.3-0.4,0.7-0.7,1-1.1
			c0.6-0.7,1.3-1.3,1.9-2c0.1-0.2,0.3-0.2,0.5-0.2c1.4,0.1,2.8,0,4.2-0.2c0.8-0.1,1.6-0.3,2.3-0.6c0.5-0.2,1-0.5,1.4-0.8
			c0.9-0.7,1.4-1.7,1.6-2.8c0.1-0.6,0.2-1.2,0.3-1.8c0-0.2,0-0.4,0-0.5c0-1.2,0.1-2.3-0.1-3.5c-0.2-0.9-0.4-1.7-0.8-2.5
			c-0.3-0.5-0.6-0.9-1.1-1.3c-0.6-0.4-1.3-0.8-2.1-0.9c-0.7-0.2-1.5-0.4-2.3-0.5c-0.7-0.1-1.4-0.1-2.2-0.1c-0.9,0-1.9,0-2.8,0.1
			c-1.1,0.1-2.2,0.3-3.2,0.9c-0.5,0.2-0.9,0.5-1.3,0.8c-0.6,0.5-0.9,1.1-1.2,1.8c-0.3,0.7-0.4,1.3-0.5,2c-0.1,0.6-0.1,1.2-0.1,1.8
			c0,1.4,0,2.9,0.5,4.2c0.2,0.6,0.5,1.1,0.8,1.5c0.7,0.9,1.6,1.4,2.7,1.8c0.2,0,0.2,0.1,0.2,0.3c0,1.1,0,2.3,0,3.4
			C375.4,206.4,375.4,206.4,375.4,206.6z"/>
		<path d="M374.2,192.3c0-0.4,0.3-0.7,0.6-0.9c0.3-0.2,0.6-0.4,0.9-0.6c0.2-0.2,0.8-0.2,1,0c0.3,0.2,0.5,0.5,0.7,0.8
			c0.3,0.4,0.6,0.7,0.8,1.1c0.1,0.2,0.2,0.5,0.2,0.8c0,0.3-0.3,0.5-0.5,0.6c-0.1,0.1-0.3,0.2-0.4,0.4c-0.2,0.2-0.2,0.5-0.1,0.7
			c0.2,0.8,0.7,1.4,1.3,1.9c0.4,0.3,0.8,0.6,1.2,0.8c0.2,0.1,0.5,0.2,0.7,0.3c0.2,0.1,0.5,0,0.6-0.2c0.2-0.2,0.3-0.4,0.5-0.6
			c0.2-0.2,0.5-0.3,0.8-0.2c0.3,0.1,0.6,0.3,0.9,0.4c0.5,0.3,0.9,0.6,1.3,0.9c0.5,0.3,0.5,0.8,0.2,1.2c-0.3,0.3-0.5,0.7-0.9,1
			c-0.4,0.4-0.9,0.5-1.5,0.3c-0.4-0.2-0.9-0.4-1.3-0.6c-0.6-0.3-1.3-0.7-1.9-1.1c-0.5-0.4-1-0.8-1.5-1.2c-0.4-0.3-0.7-0.7-1.1-1.1
			c-0.4-0.5-0.8-0.9-1.1-1.4c-0.3-0.5-0.6-1-0.9-1.5c-0.2-0.4-0.4-0.9-0.6-1.3C374.2,192.6,374.2,192.5,374.2,192.3z"/>
		<path d="M380.1,190.4c0.8,0.1,1.6,0.2,2.4,0.6c0.6,0.3,1.2,0.8,1.6,1.3c0.5,0.6,0.8,1.4,0.9,2.2c0,0.3,0.1,0.5,0.1,0.8
			c0,0.1,0,0.1,0,0.2c0,0.2-0.1,0.3-0.3,0.3c-0.2,0-0.3-0.1-0.3-0.3c0-0.4-0.1-0.8-0.1-1.2c-0.1-0.7-0.4-1.3-0.8-1.8
			c-0.5-0.6-1.2-1.1-1.9-1.4c-0.5-0.2-1.1-0.2-1.6-0.3c-0.1,0-0.2,0-0.2,0c-0.1,0-0.3-0.1-0.2-0.2c0-0.1,0.1-0.2,0.2-0.2
			C379.9,190.4,380,190.4,380.1,190.4z"/>
		<path d="M383.7,194.9c0,0,0,0.1,0,0.2c0,0.2-0.1,0.3-0.2,0.3c-0.2,0-0.3-0.1-0.3-0.3c0-0.4-0.1-0.8-0.2-1.2
			c-0.3-0.6-0.8-1.1-1.4-1.4c-0.4-0.2-0.8-0.2-1.3-0.3c-0.1,0-0.2,0-0.3-0.1c-0.1-0.1-0.1-0.2-0.1-0.3c0.1-0.1,0.2-0.2,0.3-0.2
			c0.4,0.1,0.8,0.1,1.2,0.2c0.5,0.1,0.9,0.4,1.2,0.8C383.4,193.3,383.7,194,383.7,194.9z"/>
		<path d="M380.8,193c0.6,0,1.1,0.2,1.4,0.8c0.1,0.3,0.2,0.6,0.3,0.9c0,0.2-0.1,0.3-0.2,0.4c-0.2,0-0.2-0.1-0.3-0.3
			c-0.1-0.4-0.2-0.8-0.6-1c-0.2-0.1-0.4-0.1-0.6-0.1c-0.2,0-0.3-0.2-0.3-0.4C380.5,193,380.7,193.1,380.8,193z"/>
	</g>
</g>
<g id="Layer_2">
</g>
</svg>
