<?xml version="1.0" encoding="utf-8"?>
<!-- Generator: Adobe Illustrator 17.1.0, SVG Export Plug-In . SVG Version: 6.00 Build 0)  -->
<!DOCTYPE svg PUBLIC "-//W3C//DTD SVG 1.1//EN" "http://www.w3.org/Graphics/SVG/1.1/DTD/svg11.dtd">
<svg version="1.1" xmlns="http://www.w3.org/2000/svg" xmlns:xlink="http://www.w3.org/1999/xlink" x="0px" y="0px"
	 viewBox="223 153.6 24 24" enable-background="new 223 153.6 24 24" xml:space="preserve">
<g id="Layer_1">
	<path d="M243.4,155.6h-16.9c-0.9,0-1.5,0.7-1.5,1.4v17.1c0,0.8,0.7,1.4,1.5,1.4h17c0.9,0,1.5-0.7,1.5-1.4V157
		C244.9,156.3,244.2,155.6,243.4,155.6z M230.9,172.6H228v-9.5h2.9V172.6z M229.5,161.8c-0.9,0-1.7-0.8-1.7-1.7s0.8-1.7,1.7-1.7
		s1.7,0.8,1.7,1.7C231.2,161.1,230.4,161.8,229.5,161.8z M242,172.6h-3V168c0-1.1,0-2.6-1.5-2.6s-1.8,1.2-1.8,2.5v4.7h-2.9v-9.5h2.8
		v1.3l0,0c0.4-0.8,1.3-1.5,2.7-1.5c3,0,3.5,2,3.5,4.5L242,172.6L242,172.6z"/>
</g>
<g id="Layer_2">
</g>
</svg>
