<?xml version="1.0" encoding="utf-8"?>
<!-- Generator: Adobe Illustrator 17.1.0, SVG Export Plug-In . SVG Version: 6.00 Build 0)  -->
<!DOCTYPE svg PUBLIC "-//W3C//DTD SVG 1.1//EN" "http://www.w3.org/Graphics/SVG/1.1/DTD/svg11.dtd">
<svg version="1.1" xmlns="http://www.w3.org/2000/svg" xmlns:xlink="http://www.w3.org/1999/xlink" x="0px" y="0px"
	 viewBox="165 89.1 24 24" enable-background="new 165 89.1 24 24" xml:space="preserve">
<g id="Layer_1">
	<g>
		<path d="M167,101.4c0-0.3,0-0.5,0-0.8c0,0,0-0.1,0-0.1c0-0.3,0-0.6,0.1-0.9c0.2-1.3,0.6-2.5,1.2-3.6c0.8-1.4,1.9-2.5,3.2-3.4
			c1.5-1,3.2-1.5,4.9-1.6c1-0.1,1.9,0.1,2.9,0.3c1.4,0.3,2.7,1,3.8,1.9c1.2,0.9,2.1,2,2.7,3.3c0.5,1.1,0.9,2.2,1,3.4
			c0,0.2,0,0.5,0.1,0.7c0,0.3,0,0.5,0,0.8c0,0.1,0,0.1,0,0.2c0,0.6-0.1,1.3-0.3,1.9c-0.3,1.2-0.8,2.2-1.5,3.2
			c-0.8,1.2-1.9,2.2-3.2,3c-0.7,0.4-1.5,0.8-2.3,1c-0.8,0.2-1.6,0.4-2.4,0.4c-0.9,0-1.9-0.1-2.8-0.3c-1.6-0.4-3-1.1-4.2-2.2
			c-1.2-1.1-2.1-2.3-2.7-3.8c-0.3-0.8-0.5-1.7-0.6-2.6C167,101.9,167,101.7,167,101.4z M185.9,101c0-4.9-4.1-8.9-9.2-8.8
			c-4.8,0.1-8.7,4.2-8.6,9.2c0.2,4.8,4.1,8.7,9.2,8.6C182,109.8,185.9,105.8,185.9,101z"/>
		<path d="M176.9,95.7c0.7,0,1.2,0.4,1.4,1c0,0.1,0.1,0.3,0,0.4c-0.1,1.2-0.2,2.5-0.3,3.7c-0.1,0.6-0.1,1.2-0.2,1.8
			c0,0.4-0.3,0.6-0.6,0.7c-0.4,0.1-0.7,0-0.9-0.2c-0.2-0.2-0.2-0.4-0.3-0.6c-0.1-1.1-0.2-2.1-0.3-3.2c-0.1-0.8-0.1-1.5-0.2-2.3
			c0-0.6,0.3-1,0.8-1.3C176.5,95.7,176.7,95.7,176.9,95.7z"/>
		<path d="M177,106.4c-0.5,0-1.1-0.5-1.1-1.1c0-0.5,0.4-1,1-1c0.6,0,1.1,0.5,1.1,1C178.1,105.9,177.6,106.4,177,106.4z"/>
	</g>
</g>
<g id="Layer_2">
</g>
</svg>
