<?xml version="1.0" encoding="utf-8"?>
<!-- Generator: Adobe Illustrator 17.1.0, SVG Export Plug-In . SVG Version: 6.00 Build 0)  -->
<!DOCTYPE svg PUBLIC "-//W3C//DTD SVG 1.1//EN" "http://www.w3.org/Graphics/SVG/1.1/DTD/svg11.dtd">
<svg version="1.1" id="Layer_1" xmlns="http://www.w3.org/2000/svg" xmlns:xlink="http://www.w3.org/1999/xlink" x="0px" y="0px"
	 viewBox="165 81.6 24 24" enable-background="new 165 81.6 24 24" xml:space="preserve">
<path d="M174.8,92.6h-2v2h2V92.6z M178.8,92.6h-2v2h2V92.6z M182.8,92.6h-2v2h2V92.6z M184.8,85.6h-1v-2h-2v2h-8v-2h-2v2h-1
	c-1.1,0-2,0.9-2,2l0,14c0,1.1,0.9,2,2,2h14c1.1,0,2-0.9,2-2v-14C186.8,86.5,185.9,85.6,184.8,85.6z M184.8,101.6h-14v-11h14V101.6z"
	/>
</svg>
