<?xml version="1.0" encoding="utf-8"?>
<!-- Generator: Adobe Illustrator 17.1.0, SVG Export Plug-In . SVG Version: 6.00 Build 0)  -->
<!DOCTYPE svg PUBLIC "-//W3C//DTD SVG 1.1//EN" "http://www.w3.org/Graphics/SVG/1.1/DTD/svg11.dtd">
<svg version="1.1" id="Layer_1" xmlns="http://www.w3.org/2000/svg" xmlns:xlink="http://www.w3.org/1999/xlink" x="0px" y="0px"
	 viewBox="194 -60 24 24" enable-background="new 194 -60 24 24" xml:space="preserve">
<path d="M215-49.9h-6.8l2.7-2.8c-2.7-2.7-7.2-2.8-9.9-0.1c-2.7,2.7-2.7,7.1,0,9.8c2.7,2.7,7.2,2.7,9.9,0c1.4-1.3,2-2.9,2-4.9h2
	c0,2-0.9,4.6-2.6,6.3c-3.5,3.5-9.2,3.5-12.7,0c-3.5-3.5-3.5-9.1,0-12.6c3.5-3.5,9.1-3.5,12.7,0L215-57V-49.9z M206.5-52v4.3l3.5,2.1
	l-0.7,1.2L205-47v-5H206.5z"/>
</svg>
