<?xml version="1.0" encoding="utf-8"?>
<!-- Generator: Adobe Illustrator 17.1.0, SVG Export Plug-In . SVG Version: 6.00 Build 0)  -->
<!DOCTYPE svg PUBLIC "-//W3C//DTD SVG 1.1//EN" "http://www.w3.org/Graphics/SVG/1.1/DTD/svg11.dtd">
<svg version="1.1" xmlns="http://www.w3.org/2000/svg" xmlns:xlink="http://www.w3.org/1999/xlink" x="0px" y="0px"
	 viewBox="339 184.7 24 24" enable-background="new 339 184.7 24 24" xml:space="preserve">
<g id="Layer_1">
	<g>
		<path d="M349.3,194.3c0,1.2,0,2.3,0,3.5c-0.2,0-0.4-0.1-0.6-0.1c-1.9-0.3-3.5,1.2-3.5,3.1c0,1.6,1.3,2.9,2.9,3.1
			c1.6,0.1,3-1,3.3-2.5c0-0.2,0.1-0.5,0.1-0.7c0-4.7,0-9.4,0-14.1c0-0.2,0-0.2,0.3-0.2c1,0,2,0,3,0c0.1,0,0.1,0,0.2,0
			c0,0.3,0.1,0.6,0.1,0.8c0.4,2.5,2.5,4.3,5,4.4c0.2,0,0.2,0,0.2,0.2c0,1,0,2,0,2.9c0,0.1,0,0.1,0,0.2c-1,0-1.9-0.2-2.8-0.5
			c-0.9-0.3-1.7-0.8-2.5-1.3c0,0.1,0,0.2,0,0.2c0,2.4,0,4.9,0,7.3c0,2.7-1.6,5.1-4.2,6.1c-3.6,1.4-7.8-0.6-8.8-4.4
			c-0.8-3.1,0.8-6.4,3.8-7.6c1.1-0.4,2.2-0.6,3.3-0.5C349.2,194.3,349.3,194.3,349.3,194.3z"/>
	</g>
</g>
<g id="Layer_2">
</g>
</svg>
