<?xml version="1.0" encoding="utf-8"?>
<!-- Generator: Adobe Illustrator 17.1.0, SVG Export Plug-In . SVG Version: 6.00 Build 0)  -->
<!DOCTYPE svg PUBLIC "-//W3C//DTD SVG 1.1//EN" "http://www.w3.org/Graphics/SVG/1.1/DTD/svg11.dtd">
<svg version="1.1" id="Layer_1" xmlns="http://www.w3.org/2000/svg" xmlns:xlink="http://www.w3.org/1999/xlink" x="0px" y="0px"
	 viewBox="107 81.6 24 24" enable-background="new 107 81.6 24 24" xml:space="preserve">
<path d="M123,87.6v11.5c0,2.2-1.8,4-4,4s-4-1.8-4-4V86.6c0-1.4,1.1-2.5,2.5-2.5s2.5,1.1,2.5,2.5v10.5c0,0.6-0.4,1-1,1s-1-0.4-1-1
	v-9.5h-1.5v9.5c0,1.4,1.1,2.5,2.5,2.5s2.5-1.1,2.5-2.5V86.6c0-2.2-1.8-4-4-4s-4,1.8-4,4v12.5c0,3,2.5,5.5,5.5,5.5s5.5-2.5,5.5-5.5
	V87.6H123z"/>
</svg>
