<?xml version="1.0" encoding="utf-8"?>
<!-- Generator: Adobe Illustrator 17.1.0, SVG Export Plug-In . SVG Version: 6.00 Build 0)  -->
<!DOCTYPE svg PUBLIC "-//W3C//DTD SVG 1.1//EN" "http://www.w3.org/Graphics/SVG/1.1/DTD/svg11.dtd">
<svg version="1.1" id="Layer_1" xmlns="http://www.w3.org/2000/svg" xmlns:xlink="http://www.w3.org/1999/xlink" x="0px" y="0px"
	 viewBox="223 -93.5 24 24" enable-background="new 223 -93.5 24 24" xml:space="preserve">
<path d="M235-90.5c-5,0-9,4-9,9c0,5,4,9,9,9c5,0,9-4,9-9C244-86.5,240-90.5,235-90.5z M235-74.3c-4,0-7.2-3.2-7.2-7.2
	c0-4,3.2-7.2,7.2-7.2s7.2,3.2,7.2,7.2C242.2-77.5,239-74.3,235-74.3z"/>
<polygon points="239.1,-84.4 237.9,-85.6 235,-82.7 232.1,-85.6 230.9,-84.4 233.8,-81.5 230.9,-78.6 232.1,-77.4 235,-80.3 
	237.9,-77.4 239.1,-78.6 236.2,-81.5 "/>
</svg>
