<?xml version="1.0" encoding="utf-8"?>
<!-- Generator: Adobe Illustrator 17.1.0, SVG Export Plug-In . SVG Version: 6.00 Build 0)  -->
<!DOCTYPE svg PUBLIC "-//W3C//DTD SVG 1.1//EN" "http://www.w3.org/Graphics/SVG/1.1/DTD/svg11.dtd">
<svg version="1.1" xmlns="http://www.w3.org/2000/svg" xmlns:xlink="http://www.w3.org/1999/xlink" x="0px" y="0px"
	 viewBox="223 -23.9 24 24" enable-background="new 223 -23.9 24 24" xml:space="preserve">
<g id="Layer_1">
	<g>
		<path d="M243.5-20c-1.6,1.6-3.3,3.3-4.9,4.9c0,0,0,0,0,0.1c0.3,0.7,0.3,1.2-0.2,1.7c-1.6,1.6-3.2,3.2-4.7,4.7
			c-0.5,0.5-1.1,0.6-1.8,0.2c-1.7,1.7-3.3,3.3-5,5c1.1,0.9,2.4,1.4,3.9,1.5c1.7,0,3.2-0.5,4.4-1.7c2.8-2.7,5.6-5.5,8.3-8.3
			C245.5-14,245.5-17.8,243.5-20z"/>
		<path d="M230.8-9.2c-0.8-1.1-2-1.2-3-0.1c-0.7,0.7-1.3,1.4-2,2c-1.1,1-1.1,2.2,0,3.1C227.5-5.9,229.1-7.6,230.8-9.2z"/>
		<path d="M242.6-21c-0.6-0.7-1.2-1.1-2.1-0.8c-0.3,0.1-0.6,0.3-0.8,0.5c-0.7,0.7-1.4,1.4-2.1,2.1c-1.1,1-1,2.3,0.1,3.1
			C239.3-17.7,240.9-19.3,242.6-21z"/>
	</g>
</g>
<g id="Layer_2">
</g>
</svg>
