<?xml version="1.0" encoding="utf-8"?>
<!-- Generator: Adobe Illustrator 17.1.0, SVG Export Plug-In . SVG Version: 6.00 Build 0)  -->
<!DOCTYPE svg PUBLIC "-//W3C//DTD SVG 1.1//EN" "http://www.w3.org/Graphics/SVG/1.1/DTD/svg11.dtd">
<svg version="1.1" id="Layer_1" xmlns="http://www.w3.org/2000/svg" xmlns:xlink="http://www.w3.org/1999/xlink" x="0px" y="0px"
	 viewBox="252 184.7 24 24" enable-background="new 252 184.7 24 24" xml:space="preserve">
<g>
	<g>
		<path d="M261.5,201.5c-0.8-0.3-1.6-0.7-2.4-1c-0.3-0.1-0.5-0.3-0.7-0.5c-0.6-0.6-0.7-1.4-0.3-2c0.5-0.8,1.3-1.1,2.1-0.7
			c0.1,0,0.2,0.1,0.3,0.1c2.3,1.4,4.7,1.3,7,0c0.9-0.5,1.8-0.3,2.3,0.5c0.5,0.7,0.4,1.6-0.2,2.1c-0.6,0.5-1.4,0.8-2.1,1.1
			c-0.3,0.1-0.6,0.2-1,0.4c0.3,0.4,0.6,0.7,0.9,1c0.5,0.5,1.1,1,1.6,1.6c0.2,0.3,0.5,0.5,0.6,0.8c0.3,0.6,0.1,1.5-0.4,1.9
			c-0.6,0.5-1.4,0.6-2,0.2c-0.6-0.5-1.2-1.1-1.8-1.7c-0.4-0.4-0.9-0.9-1.3-1.4c-0.7,0.7-1.3,1.3-1.9,1.9c-0.3,0.3-0.6,0.7-1,1
			c-0.7,0.6-1.6,0.6-2.3,0c-0.6-0.5-0.7-1.6-0.2-2.3c0.5-0.6,1.1-1.2,1.7-1.8C260.7,202.3,261.1,201.9,261.5,201.5z"/>
	</g>
	<g>
		<path d="M258.6,191.7c-0.1-3,2.4-5.6,5.6-5.4c3,0.1,5.3,2.3,5.3,5.5c0,3.1-2.6,5.5-5.7,5.4C261.1,197.1,258.4,194.7,258.6,191.7z
			 M261.9,191.7c0,1.1,0.9,2.1,2.1,2.1c1.1,0,2-0.9,2-2c0-1.1-0.9-2.1-2-2.1C262.9,189.6,262,190.5,261.9,191.7z"/>
	</g>
</g>
</svg>
