<?xml version="1.0" encoding="utf-8"?><!DOCTYPE svg PUBLIC "-//W3C//DTD SVG 1.1//EN" "http://www.w3.org/Graphics/SVG/1.1/DTD/svg11.dtd"><svg viewBox="0 0 24 24" xmlns="http://www.w3.org/2000/svg" xmlns:xlink="http://www.w3.org/1999/xlink"><style>:root>svg{display:none}:root>svg:target{display:block}</style><svg viewBox="165 89.1 24 24" id="icons_alert" xmlns="http://www.w3.org/2000/svg"><path d="M167 101.4v-.8-.1c0-.3 0-.6.1-.9.2-1.3.6-2.5 1.2-3.6.8-1.4 1.9-2.5 3.2-3.4 1.5-1 3.2-1.5 4.9-1.6 1-.1 1.9.1 2.9.3 1.4.3 2.7 1 3.8 1.9 1.2.9 2.1 2 2.7 3.3.5 1.1.9 2.2 1 3.4 0 .2 0 .5.1.7v1c0 .6-.1 1.3-.3 1.9-.3 1.2-.8 2.2-1.5 3.2-.8 1.2-1.9 2.2-3.2 3-.7.4-1.5.8-2.3 1-.8.2-1.6.4-2.4.4-.9 0-1.9-.1-2.8-.3-1.6-.4-3-1.1-4.2-2.2-1.2-1.1-2.1-2.3-2.7-3.8-.3-.8-.5-1.7-.6-2.6.1-.3.1-.5.1-.8zm18.9-.4c0-4.9-4.1-8.9-9.2-8.8-4.8.1-8.7 4.2-8.6 9.2.2 4.8 4.1 8.7 9.2 8.6 4.7-.2 8.6-4.2 8.6-9z"/><path d="M176.9 95.7c.7 0 1.2.4 1.4 1 0 .1.1.3 0 .4-.1 1.2-.2 2.5-.3 3.7-.1.6-.1 1.2-.2 1.8 0 .4-.3.6-.6.7-.4.1-.7 0-.9-.2-.2-.2-.2-.4-.3-.6-.1-1.1-.2-2.1-.3-3.2-.1-.8-.1-1.5-.2-2.3 0-.6.3-1 .8-1.3h.6zM177 106.4c-.5 0-1.1-.5-1.1-1.1 0-.5.4-1 1-1s1.1.5 1.1 1c.1.6-.4 1.1-1 1.1z"/></svg><svg viewBox="194 89.1 24 24" id="icons_alert-fill" xmlns="http://www.w3.org/2000/svg"><path d="M206 91.1c-5.5 0-10 4.5-10 10s4.5 10 10 10 10-4.5 10-10c0-5.6-4.5-10-10-10zm1 15h-2v-2h2v2zm0-4h-2v-6h2v6z"/></svg><svg viewBox="368 36.9 24 24" id="icons_arrow-dd" xmlns="http://www.w3.org/2000/svg"><path d="M380 54.2l-10-8.6 1.7-2 8.3 7.1 8.3-7.1 1.7 2z"/></svg><svg viewBox="339 36.9 24 24" id="icons_arrow-fill-dd" xmlns="http://www.w3.org/2000/svg"><path d="M351 53.9l-10-10h20l-10 10z"/></svg><svg viewBox="107 36.9 24 24" id="icons_arrow-fill-left" xmlns="http://www.w3.org/2000/svg"><path d="M114 48.9l10-10v20l-10-10z"/></svg><svg viewBox="310 36.9 24 24" id="icons_arrow-fill-right" xmlns="http://www.w3.org/2000/svg"><path d="M317 58.9v-20l10 10-10 10z"/></svg><svg viewBox="165 36.9 24 24" id="icons_arrow-left" xmlns="http://www.w3.org/2000/svg"><path d="M181.1 58.9l1.7-1.6-8.3-8.7 8.3-8-1.6-1.7-10 9.7z"/></svg><svg viewBox="281 89.1 24 24" id="icons_arrow-location" xmlns="http://www.w3.org/2000/svg"><path d="M303 91.8l-20 8.8 9.3.9 1.4 8.8 9.3-18.5z"/></svg><svg viewBox="252 36.9 24 24" id="icons_arrow-right" xmlns="http://www.w3.org/2000/svg"><path d="M259.9 58.9l-1.7-1.6 8.3-8.7-8.3-8 1.6-1.7 10 9.7z"/></svg><svg viewBox="136 36.9 24 24" id="icons_arrow-round-left" xmlns="http://www.w3.org/2000/svg"><path d="M152.3 58.9c.3 0 .7-.1 1-.4.5-.5.5-1.4 0-1.9l-7.7-7.7 7.7-7.7c.5-.5.5-1.4 0-1.9s-1.4-.5-1.9 0l-8.6 8.6c-.5.5-.5 1.4 0 1.9l8.6 8.6c.2.4.6.5.9.5z"/></svg><svg viewBox="281 36.9 24 24" id="icons_arrow-round-right" xmlns="http://www.w3.org/2000/svg"><path d="M288.7 58.9c-.3 0-.7-.1-1-.4-.5-.5-.5-1.4 0-1.9l7.7-7.7-7.7-7.7c-.5-.5-.5-1.4 0-1.9s1.4-.5 1.9 0l8.6 8.6c.5.5.5 1.4 0 1.9l-8.6 8.6c-.2.4-.6.5-.9.5z"/></svg><svg viewBox="397.1 36.9 24 24" id="icons_arrow-thin-dd" xmlns="http://www.w3.org/2000/svg"><path d="M409.1 54.1c-.1 0-.2 0-.3-.1l-9.5-9.5c-.2-.2-.2-.5 0-.7.2-.2.5-.2.7 0l9.2 9.2 9.2-9.2c.2-.2.5-.2.7 0 .2.2.2.5 0 .7l-9.5 9.5c-.3.1-.4.1-.5.1z"/></svg><svg viewBox="194 36.9 24 24" id="icons_arrow-thin-left" xmlns="http://www.w3.org/2000/svg"><path d="M210.6 58.9l.8-.8-9.1-9.2 9.1-9.1-.8-.9-10 10z"/></svg><svg viewBox="223 36.9 24 24" id="icons_arrow-thin-right" xmlns="http://www.w3.org/2000/svg"><path d="M230.4 58.9l-.8-.8 9.1-9.2-9.1-9.1.8-.9 10 10z"/></svg><svg viewBox="339 -23.9 24 24" id="icons_attach" xmlns="http://www.w3.org/2000/svg"><path d="M356.4-21.9c.3.1.5.1.8.2 2.7.9 3.5 4.2 1.5 6.2-2.8 2.9-5.7 5.7-8.5 8.5-.7.7-1.6.9-2.6.6-1-.3-1.5-1-1.7-2-.1-.8.1-1.5.6-2 .5-.6 1.1-1.1 1.7-1.7l2.5-2.5c.3-.3.7-.4 1-.2.4.2.6.8.2 1.2l-.2.2-3.9 3.9c-.2.2-.4.5-.3.8.1.6.8.9 1.3.5.1 0 .1-.1.2-.2l8.4-8.4c1-1 .9-2.5-.2-3.3-.8-.6-1.9-.5-2.6.2l-.2.2c-3.4 3.4-6.8 6.8-10.1 10.2-1.1 1.1-1.4 2.6-.7 3.9.9 1.9 3.6 2.5 5.2 1 .1-.1.3-.2.4-.4l9.7-9.7c.2-.2.5-.4.9-.3.6.1.9.8.5 1.3l-.2.2c-3.3 3.3-6.5 6.6-9.8 9.9-.7.7-1.6 1.2-2.6 1.5-.2 0-.4.1-.6.1h-.8c-.2 0-.4-.1-.7-.1-2.3-.5-3.9-2.5-3.9-4.9 0-1.4.5-2.6 1.5-3.6 3.4-3.4 6.8-6.8 10.2-10.3.5-.5 1.2-.9 1.9-1.1.1 0 .3-.1.4-.1.2.2.4.2.7.2z"/></svg><svg viewBox="397.1 -23.9 24 24" id="icons_calendar" xmlns="http://www.w3.org/2000/svg"><path d="M416-20.3v-.6c0-.5-.4-1-1-1-.5 0-.9.4-.9 1v.8h-9.6v-.8c0-.6-.4-1-1-1-.5 0-.9.4-.9 1v.8h-3.5v18.2h20v-18.4H416zM404.9-4.6h-3v-3.3h3.1v3.3h-.1zm0-4.2h-3v-3.1h3.1v3.1h-.1zm0-4h-3v-3.3h3.1v3.3h-.1zm3.8 8.2h-3.1v-3.3h3.1v3.3zm0-4.2h-3.1v-3.1h3.1v3.1zm0-4h-3.1v-3.3h3.1v3.3zm3.9 8.2h-3.1v-3.3h3.1v3.3zm0-4.2h-3.1v-3.1h3.1v3.1zm0-4h-3.1v-3.3h3.1v3.3zm3.8 8.2h-3.1v-3.3h3.1v3.3zm0-4.2h-3.1v-3.1h3.1v3.1zm0-4h-3.1v-3.3h3.1v3.3z"/></svg><svg viewBox="107 89.1 24 24" id="icons_check" xmlns="http://www.w3.org/2000/svg"><path d="M116.8 107.5c-.3 0-.7-.1-1-.4l-6.4-5.9c-.6-.5-.6-1.4-.1-2 .5-.6 1.4-.6 2-.1l5.4 5 9.8-9.1c.6-.5 1.5-.5 2 .1s.5 1.5-.1 2l-10.8 10c-.1.3-.4.4-.8.4z"/></svg><svg viewBox="136 89.1 24 24" id="icons_close" xmlns="http://www.w3.org/2000/svg"><path d="M158 92.9l-1.8-1.8-8.2 8.1-8.2-8.1-1.8 1.8 8.2 8.2-8.2 8.1 1.8 1.9 8.2-8.2 8.2 8.2 1.8-1.9-8.2-8.1z"/></svg><svg viewBox="368 -23.9 24 24" id="icons_document" xmlns="http://www.w3.org/2000/svg"><path d="M381.7-21.9c.7.1 1.2.6 1.7 1.1 1.1 1 2.1 2.1 3.1 3.1.3.3.6.7.9 1.1.2.3.2.6.2.9V-5c0 1.4-1.1 2.7-2.5 2.9-.2 0-.5.1-.7.1h-9.2c-.7 0-1.4-.3-1.9-.8s-.9-1.1-1-1.8V-5v-13.9c0-1.3.9-2.5 2.2-2.9.2-.1.4-.1.6-.1h6.6zm-7.9 10V-5c0 .3.1.6.3.9.3.4.7.7 1.3.7h9.3c.3 0 .5-.1.7-.2.5-.3.8-.8.8-1.4v-9-.9c0-.4-.2-.6-.6-.7-.2 0-.4-.1-.5-.1h-2.7c-.1 0-.2 0-.3-.1-.3-.1-.5-.4-.5-.8v-2.8c0-.2 0-.5-.2-.7-.1-.2-.3-.3-.5-.3h-5.5c-.3 0-.6.1-.8.2-.5.3-.7.8-.7 1.3-.1 2.5-.1 4.8-.1 7z"/><path d="M380-8h3.9c.5 0 .8.3.8.8 0 .4-.3.8-.8.8h-8c-.4-.1-.6-.5-.5-.9.1-.4.4-.6.8-.6 1.2-.1 2.5-.1 3.8-.1zM380-14.2h3.9c.4 0 .7.3.8.7 0 .4-.3.8-.7.8H376.2c-.4 0-.8-.2-.8-.7-.1-.4.3-.9.7-.9h3.6c0 .1.1.1.3.1zM379.2-9.5h-3c-.2 0-.3 0-.5-.1-.3-.2-.5-.5-.4-.9.1-.3.4-.6.7-.6h6.1c.5 0 .8.3.8.8 0 .4-.3.8-.8.8h-2.9z"/></svg><svg viewBox="194 -23.9 24 24" id="icons_email" xmlns="http://www.w3.org/2000/svg"><path d="M196-17.8c1 .8 1.8 1.5 2.7 2.2 2.2 1.8 4.5 3.7 6.7 5.5.5.4.7.4 1.2 0 3-2.4 6-4.9 9-7.3.1-.1.2-.2.4-.3v11.9c0 .8-.2 1-1 1h-18c-.8 0-1-.2-1-1v-11.6-.4z"/><path d="M206-11.4c-3.1-2.5-6.1-5-9.2-7.6h18.6c-3.2 2.6-6.3 5.1-9.4 7.6z"/></svg><svg viewBox="136 -23.9 24 24" id="icons_eye" xmlns="http://www.w3.org/2000/svg"><path d="M148-17.7c-4.3 0-8 2.3-10 5.8 2 3.5 5.7 5.8 10 5.8s8-2.3 10-5.8c-2-3.5-5.7-5.8-10-5.8zm.1 9.8c-2.2 0-4-1.8-4-4s1.8-4 4-4 4 1.8 4 4-1.8 4-4 4z"/><path d="M146-11.2c-.4 0-.6-.2-.6-.6 0-1.5 1.3-2.7 2.7-2.7.4 0 .6.2.6.6 0 .4-.2.6-.6.6-.8 0-1.5.7-1.5 1.5 0 .3-.3.6-.6.6z"/></svg><svg viewBox="136 184.7 24 24" id="icons_facebook" xmlns="http://www.w3.org/2000/svg"><path d="M151.8 207h-3.5v-7.9h-1.8v-3.4H148.3v-.8c0-1.1.4-2 1-2.8.9-1.2 2.1-1.3 3-1.3.4 0 .8 0 1.2.1h1.1v3l-.3.2h-1.7c-.3 0-.7.2-.7.6v.9h3l-.1.6c-.1.5-.1.9-.2 1.3s-.1.8-.2 1.2l-.1.4h-2.4v7.9zm-2.5-1h1.5v-7.9h2.5c0-.3.1-.6.1-.8 0-.2.1-.4.1-.7h-2.8v-.5-.6-.9c.1-.8.8-1.4 1.7-1.5H153.6v-1.4h-.2c-.4 0-.8-.1-1.1-.1-1 0-1.7.3-2.2.9-.5.6-.8 1.4-.8 2.2v1.8H147.5v1.4h1.8v8.1z"/><path d="M155.9 207h-15.8c-1.4 0-2.6-1.2-2.6-2.6V189c0-1.4 1.2-2.6 2.6-2.6h15.8c1.4 0 2.6 1.2 2.6 2.6v15.4c0 1.4-1.2 2.6-2.6 2.6zm-15.8-19.6c-.9 0-1.6.7-1.6 1.6v15.4c0 .9.7 1.6 1.6 1.6h15.8c.9 0 1.6-.7 1.6-1.6V189c0-.9-.7-1.6-1.6-1.6h-15.8z"/></svg><svg viewBox="136 153.6 24 24" id="icons_fb-fill" xmlns="http://www.w3.org/2000/svg"><path d="M154 155.6h-12c-2.2 0-4 1.8-4 4v12c0 2.2 1.8 4 4 4h4.4v-7h-2.3V166h2.3v-1.9c0-2.2 1.4-3.4 3.5-3.4 1 0 2 .2 2 .2v2.1h-1.2c-1.1 0-1.5.7-1.5 1.4v1.6h2.5l-.4 2.5h-2.1v7h4.7c2.2 0 4-1.8 4-4v-12c.1-2.2-1.7-3.9-3.9-3.9z"/></svg><svg viewBox="223 153.6 24 24" id="icons_inn-fill" xmlns="http://www.w3.org/2000/svg"><path d="M243.4 155.6h-16.9c-.9 0-1.5.7-1.5 1.4v17.1c0 .8.7 1.4 1.5 1.4h17c.9 0 1.5-.7 1.5-1.4V157c-.1-.7-.8-1.4-1.6-1.4zm-12.5 17H228v-9.5h2.9v9.5zm-1.4-10.8c-.9 0-1.7-.8-1.7-1.7s.8-1.7 1.7-1.7 1.7.8 1.7 1.7c0 1-.8 1.7-1.7 1.7zm12.5 10.8h-3V168c0-1.1 0-2.6-1.5-2.6s-1.8 1.2-1.8 2.5v4.7h-2.9v-9.5h2.8v1.3c.4-.8 1.3-1.5 2.7-1.5 3 0 3.5 2 3.5 4.5l.2 5.2z"/></svg><svg viewBox="165 184.7 24 24" id="icons_insta" xmlns="http://www.w3.org/2000/svg"><path d="M171.3 187.7h11.4v-1h-11.4v1zM186 191v11.4h1V191h-1zm-3.3 14.8h-11.4v1h11.4v-1zm-14.7-3.4V191h-1v11.4h1zm3.3 3.4c-1.8 0-3.3-1.5-3.3-3.3h-1c0 2.4 1.9 4.3 4.3 4.3v-1zm14.7-3.4c0 1.8-1.5 3.3-3.3 3.3v1c2.4 0 4.3-1.9 4.3-4.3h-1zm-3.3-14.7c1.8 0 3.3 1.5 3.3 3.3h1c0-2.4-1.9-4.3-4.3-4.3v1zm-11.4-1c-2.4 0-4.3 1.9-4.3 4.3h1c0-1.8 1.5-3.3 3.3-3.3v-1zM177 200c-1.8 0-3.3-1.5-3.3-3.3h-1c0 2.4 1.9 4.3 4.3 4.3v-1zm3.3-3.3c0 1.8-1.5 3.3-3.3 3.3v1c2.4 0 4.3-1.9 4.3-4.3h-1zm-3.3-3.3c1.8 0 3.3 1.5 3.3 3.3h1c0-2.4-1.9-4.3-4.3-4.3v1zm0-1c-2.4 0-4.3 1.9-4.3 4.3h1c0-1.8 1.5-3.3 3.3-3.3v-1zm5.2 0h1v-1h-1v1z"/></svg><svg viewBox="165 153.6 24 24" id="icons_insta-fill" xmlns="http://www.w3.org/2000/svg"><circle cx="177" cy="165.6" r="3.5"/><path d="M187.4 161.2c0-1.1-.2-1.9-.5-2.5-.3-.7-.6-1.3-1.2-1.9-.6-.6-1.2-.9-1.9-1.2-.7-.3-1.4-.4-2.5-.5-1.1-.1-1.5-.1-4.3-.1s-3.2 0-4.3.1c-1.1 0-1.9.2-2.5.5-.7.3-1.3.6-1.9 1.2-.6.6-.9 1.2-1.2 1.9-.3.7-.4 1.4-.5 2.5 0 1.1-.1 1.5-.1 4.3s0 3.2.1 4.3c0 1.1.2 1.9.5 2.5.3.7.6 1.3 1.2 1.9.6.6 1.2.9 1.9 1.2.7.3 1.4.4 2.5.5 1.1 0 1.5.1 4.3.1s3.2 0 4.3-.1c1.1 0 1.9-.2 2.5-.5.7-.3 1.3-.6 1.9-1.2.6-.6.9-1.2 1.2-1.9.3-.7.4-1.4.5-2.5 0-1.1.1-1.5.1-4.3s0-3.2-.1-4.3zm-10.4 9.7c-3 0-5.4-2.4-5.4-5.4 0-3 2.4-5.4 5.4-5.4 3 0 5.4 2.4 5.4 5.4 0 3-2.4 5.4-5.4 5.4zm5.6-9.7c-.7 0-1.3-.6-1.3-1.3 0-.7.6-1.3 1.3-1.3.7 0 1.3.6 1.3 1.3 0 .7-.6 1.3-1.3 1.3z"/></svg><svg viewBox="165 -23.9 24 24" id="icons_location" xmlns="http://www.w3.org/2000/svg"><path d="M182.9-19.4c-3.2-3.2-8.5-3.2-11.7 0-3.2 3.2-3.2 8.5 0 11.7l5.9 5.9 5.9-5.9c3.1-3.2 3.1-8.5-.1-11.7zm-3.8 7.7c-1.2 1.2-3.1 1.2-4.3 0-1.2-1.2-1.2-3.1 0-4.3s3.1-1.2 4.3 0 1.1 3.2 0 4.3z"/></svg><svg viewBox="339 89.1 24 24" id="icons_minus" xmlns="http://www.w3.org/2000/svg"><path fill="#272B37" d="M341 100.1h20v1.9h-20z"/></svg><svg viewBox="281 184.7 24 24" id="icons_moymir" xmlns="http://www.w3.org/2000/svg"><path d="M299.9 196.2c.3 0 .6.1.8.3l2.5 2.5c.6.6.4 1.6-.4 1.9-.4.1-.8.1-1.1-.2l-.6-.6c-.1-.1-.1-.1-.2 0-1.2 1.1-2.6 1.9-4.1 2.5-1.5.5-3.1.7-4.7.6-2.2-.2-4.2-.9-6-2.2-.3-.2-.6-.4-.8-.7-.2-.2-.2-.2-.4 0l-.4.4c-.4.3-.8.4-1.2.2-.4-.2-.6-.6-.6-1.1 0-.3.1-.5.3-.7l2.5-2.5c.5-.5 1.2-.4 1.6 0 .4.4.4 1.1 0 1.6l-.3.3c-.1.1-.1.2 0 .2.6.6 1.3 1 2.1 1.4 1.6.8 3.4 1.1 5.2.9 2-.2 3.8-1 5.3-2.4.1-.1.1-.2 0-.2-.2-.2-.5-.4-.5-.8-.3-.7.2-1.4 1-1.4zM291 191.8c0 .9-.8 1.7-1.7 1.7-.9 0-1.7-.8-1.7-1.7 0-.9.8-1.7 1.7-1.7.9 0 1.7.8 1.7 1.7zM296.8 190.1c.9 0 1.7.8 1.7 1.7 0 .9-.8 1.7-1.7 1.7-.9 0-1.7-.8-1.7-1.7-.1-1 .7-1.7 1.7-1.7z"/></svg><svg viewBox="252 184.7 24 24" id="icons_ok" xmlns="http://www.w3.org/2000/svg"><path d="M261.5 201.5c-.8-.3-1.6-.7-2.4-1-.3-.1-.5-.3-.7-.5-.6-.6-.7-1.4-.3-2 .5-.8 1.3-1.1 2.1-.7.1 0 .2.1.3.1 2.3 1.4 4.7 1.3 7 0 .9-.5 1.8-.3 2.3.5.5.7.4 1.6-.2 2.1-.6.5-1.4.8-2.1 1.1-.3.1-.6.2-1 .4.3.4.6.7.9 1 .5.5 1.1 1 1.6 1.6.2.3.5.5.6.8.3.6.1 1.5-.4 1.9-.6.5-1.4.6-2 .2-.6-.5-1.2-1.1-1.8-1.7-.4-.4-.9-.9-1.3-1.4l-1.9 1.9c-.3.3-.6.7-1 1-.7.6-1.6.6-2.3 0-.6-.5-.7-1.6-.2-2.3.5-.6 1.1-1.2 1.7-1.8.3-.4.7-.8 1.1-1.2z"/><path d="M258.6 191.7c-.1-3 2.4-5.6 5.6-5.4 3 .1 5.3 2.3 5.3 5.5 0 3.1-2.6 5.5-5.7 5.4-2.7-.1-5.4-2.5-5.2-5.5zm3.3 0c0 1.1.9 2.1 2.1 2.1 1.1 0 2-.9 2-2s-.9-2.1-2-2.1c-1.1-.1-2 .8-2.1 2z"/></svg><svg viewBox="223 -23.9 24 24" id="icons_phone" xmlns="http://www.w3.org/2000/svg"><path d="M243.5-20l-4.9 4.9v.1c.3.7.3 1.2-.2 1.7l-4.7 4.7c-.5.5-1.1.6-1.8.2l-5 5c1.1.9 2.4 1.4 3.9 1.5 1.7 0 3.2-.5 4.4-1.7 2.8-2.7 5.6-5.5 8.3-8.3 2-2.1 2-5.9 0-8.1zM230.8-9.2c-.8-1.1-2-1.2-3-.1-.7.7-1.3 1.4-2 2-1.1 1-1.1 2.2 0 3.1 1.7-1.7 3.3-3.4 5-5zM242.6-21c-.6-.7-1.2-1.1-2.1-.8-.3.1-.6.3-.8.5l-2.1 2.1c-1.1 1-1 2.3.1 3.1l4.9-4.9z"/></svg><svg viewBox="310 89.1 24 24" id="icons_plus" xmlns="http://www.w3.org/2000/svg"><path fill="#272B37" d="M332 100.1h-9v-9h-2v9h-9v1.9h9v9.1h2V102h9z"/></svg><svg viewBox="107 -23.9 24 24" id="icons_search" xmlns="http://www.w3.org/2000/svg"><path fill="#272B37" d="M128.6-4.1l-5-5c1-1.3 1.5-3 1.5-4.7 0-4.4-3.6-8.1-8.1-8.1s-8.1 3.6-8.1 8.1 3.6 8.1 8.1 8.1c1.8 0 3.4-.6 4.7-1.5l5 5c.3.3.6.4.9.4.3 0 .7-.1.9-.4.6-.5.6-1.4.1-1.9zm-17-9.7c0-3 2.5-5.5 5.5-5.5s5.5 2.5 5.5 5.5-2.5 5.5-5.5 5.5c-3.1 0-5.5-2.5-5.5-5.5z"/><path fill="#272B37" d="M128.6-4.1l-5-5c1-1.3 1.5-3 1.5-4.7 0-4.4-3.6-8.1-8.1-8.1s-8.1 3.6-8.1 8.1 3.6 8.1 8.1 8.1c1.8 0 3.4-.6 4.7-1.5l5 5c.3.3.6.4.9.4.3 0 .7-.1.9-.4.6-.5.6-1.4.1-1.9zm-17-9.7c0-3 2.5-5.5 5.5-5.5s5.5 2.5 5.5 5.5-2.5 5.5-5.5 5.5c-3.1 0-5.5-2.5-5.5-5.5z"/><path d="M128.6-4.1l-5-5c1-1.3 1.5-3 1.5-4.7 0-4.4-3.6-8.1-8.1-8.1s-8.1 3.6-8.1 8.1 3.6 8.1 8.1 8.1c1.8 0 3.4-.6 4.7-1.5l5 5c.3.3.6.4.9.4.3 0 .7-.1.9-.4.6-.5.6-1.4.1-1.9zm-17-9.7c0-3 2.5-5.5 5.5-5.5s5.5 2.5 5.5 5.5-2.5 5.5-5.5 5.5c-3.1 0-5.5-2.5-5.5-5.5z"/></svg><svg viewBox="252 153.6 24 24" id="icons_skype" xmlns="http://www.w3.org/2000/svg"><path d="M274 165.7c0 .6 0 1.1-.2 1.7-.1.3 0 .5.1.8.8 2.2.5 4.2-1 6-1.6 1.7-3.6 2.3-5.9 1.7h-.1c-.7-.4-1.5-.3-2.3-.3-4.5.2-8.3-2.3-9.8-6.5-.6-1.6-.7-3.2-.5-4.9 0-.3 0-.5-.1-.8-1.7-3.5.3-7.4 4.1-8.2 1.2-.2 2.4-.1 3.5.5.4.2.8.3 1.3.2 5.1-.6 10.1 3.2 10.8 8.3 0 .5.1 1 .1 1.5zm-9.8 6.7c1.4-.1 2.7-.3 3.8-1 1.3-.8 2-2 1.9-3.6-.1-1.5-.9-2.4-2.2-3-1.1-.5-2.3-.7-3.4-1-.6-.2-1.3-.3-1.9-.6-.4-.2-.8-.5-.8-1.1 0-.6.4-.9.8-1.1.1-.1.3-.1.4-.2.6-.2 1.2-.2 1.8-.1.5.1.9.3 1.2.6.4.4.6.8.9 1.3.3.5.8.7 1.3.6.6-.1 1-.4 1.1-1 .1-.4 0-.8-.1-1.1-.5-1.1-1.4-1.7-2.4-2.1-1.1-.4-2.3-.4-3.5-.4-1.1.1-2.1.3-3 .9-.9.6-1.6 1.5-1.6 2.7 0 1.6.8 2.6 2.2 3.3 1 .5 2.2.7 3.3 1 .6.1 1.2.2 1.8.5.6.3 1 .7 1 1.4s-.4 1.1-1 1.4c-.5.2-1 .4-1.5.4-1.4 0-2.4-.3-3-1.7-.1-.2-.2-.5-.4-.7-.4-.6-1-.8-1.7-.5-.6.2-.9.8-.8 1.5.2 1.1.7 1.9 1.6 2.5 1.2.9 2.7 1.1 4.2 1.1z"/></svg><svg viewBox="339 184.7 24 24" id="icons_tiktok" xmlns="http://www.w3.org/2000/svg"><path d="M349.3 194.3v3.5c-.2 0-.4-.1-.6-.1-1.9-.3-3.5 1.2-3.5 3.1 0 1.6 1.3 2.9 2.9 3.1 1.6.1 3-1 3.3-2.5 0-.2.1-.5.1-.7v-14.1c0-.2 0-.2.3-.2h3.2c0 .3.1.6.1.8.4 2.5 2.5 4.3 5 4.4.2 0 .2 0 .2.2v3.1c-1 0-1.9-.2-2.8-.5-.9-.3-1.7-.8-2.5-1.3v7.5c0 2.7-1.6 5.1-4.2 6.1-3.6 1.4-7.8-.6-8.8-4.4-.8-3.1.8-6.4 3.8-7.6 1.1-.4 2.2-.6 3.3-.5.1.1.2.1.2.1z"/></svg><svg viewBox="223 184.7 24 24" id="icons_tme" xmlns="http://www.w3.org/2000/svg"><path d="M226.2 195.4l-.2-.4-1 .4 1 .5.2-.5zm18.2-6.6l.5.1.1-.8-.7.3.1.4zm-2.6 15.7l-.3.4.6.4.1-.7-.4-.1zm-7.8-5.2l-.4-.3-.3.4.4.3.3-.4zm5.2-6.5l.4.3-.6-.7.2.4zm-7.8 5.2l-.2.4.2.1.2-.1-.2-.4zm-5.1-2.2l18.3-6.5-.3-.9-18.3 6.5.3.9zm17.7-7l-2.6 15.7.9.2 2.6-15.7-.9-.2zm-1.9 15.3l-7.8-5.2-.5.8 7.8 5.2.5-.8zm-7.8-4.5l5.2-6.5-.7-.6-5.2 6.5.7.6zm4.7-7.2l-7.8 5.2.5.8 7.8-5.2-.5-.8zm-7.4 5.2l-5.2-2.6-.4.8 5.2 2.6.4-.8z"/></svg><svg viewBox="194 153.6 24 24" id="icons_tw-fill" xmlns="http://www.w3.org/2000/svg"><path d="M202.4 173.6c7.5 0 11.6-6.3 11.6-11.6v-.6c.8-.5 1.4-1.1 2-2-.8.3-1.5.6-2.4.7.9-.5 1.5-1.3 1.8-2.3-.8.5-1.7.9-2.6 1-.7-.7-1.4-1-2.4-1.2-.9-.2-1.8 0-2.6.5-.8.4-1.4 1.1-1.8 1.9-.4.9-.5 1.7-.3 2.7-1.6-.1-3.1-.6-4.7-1.3-1.4-.8-2.8-1.8-3.8-3-.5 1-.7 2-.4 3 .2 1 .9 1.9 1.7 2.5-.7 0-1.3-.2-1.9-.5 0 1 .3 1.9 1 2.6.6.8 1.4 1.2 2.4 1.4-.6.2-1.2.2-1.8.1.3.9.8 1.5 1.4 2 .7.5 1.5.8 2.4.9-1.4 1.1-3.2 1.8-5.1 1.8-.3 0-.7 0-1-.1 2.1 1 4.3 1.5 6.5 1.5z"/></svg><svg viewBox="194 184.7 24 24" id="icons_twitter" xmlns="http://www.w3.org/2000/svg"><path d="M215.5 188.4h.5c0-.2-.1-.4-.3-.4-.2-.1-.4 0-.5.1l.3.3zm-.9 4c0-.3-.2-.5-.5-.5s-.5.2-.5.5h1zm-8.6 1.2v.5h.5v-.5h-.5zm-8.2-5.2l.4-.2c-.1-.2-.2-.3-.4-.3s-.4.1-.5.3l.5.2zm5.3 12.4l.3.3c.1-.1.2-.3.1-.4 0-.2-.2-.3-.3-.3l-.1.4zm-6.6 2.5v-.5c-.2 0-.4.1-.5.3-.1.2 0 .4.2.5l.3-.3zm16.6-13.6l-.4.3.2.2h.3l-.1-.5zm1.9-1.3c.1 1.1 0 1.7-.2 2.3-.2.5-.5.9-1 1.4l.7.7c.6-.6 1-1.1 1.3-1.8.2-.7.3-1.5.2-2.6h-1zm-.4 5v-.9h-1v.9h1zm0-.9l-1-.1v.1h1zm-9.1.2v1h1v-1h-1zm4.6-4.8c-2.6 0-4.6 2.2-4.6 4.8h1c0-2 1.6-3.8 3.6-3.8v-1zm3.6 5.5c0 6-5 11.2-11 11.2v1c6.5 0 11.9-5.6 11.9-12.1h-.9zm-16.3-4.9c.7 1.9 3.5 5.5 8.6 5.5v-1c-4.6 0-7.1-3.2-7.7-4.9l-.9.4zm0-.3c-1.4 2.8-1.6 5.5-.7 7.9 1 2.3 3.1 4.1 6.3 5.2l.3-.9c-3-1-4.8-2.6-5.7-4.6-.8-2-.7-4.4.6-7.1l-.8-.5zm5.4 12.2c-.8.8-3.2 2.4-6.3 2.4v1c3.4 0 6-1.7 7-2.7l-.7-.7zm10.6-11c-.8-.9-2-1.5-3.3-1.5v1c1 0 2 .4 2.6 1.2l.7-.7zm-.2.8c1-.1 2-.7 2.7-1.5l-.7-.6c-.6.7-1.4 1.1-2.1 1.2l.1.9zm-17 13.5c2.1 1.4 4.2 1.8 6.5 1.8v-1c-2.1 0-4-.3-5.9-1.6l-.6.8z"/></svg><svg viewBox="368 184.7 24 24" id="icons_viber" xmlns="http://www.w3.org/2000/svg"><path d="M374.7 205.2v-1.1c0-.1 0-.2-.1-.2l-1.5-.6c-.7-.4-1.4-.9-1.8-1.6-.6-.8-1-1.8-1.2-2.8-.2-.8-.2-1.6-.3-2.4 0-.4-.1-.8 0-1.2.1-1 .1-2 .2-3 .1-.7.3-1.5.6-2.2.3-.7.7-1.4 1.3-1.9.3-.3.7-.5 1-.7.7-.4 1.4-.7 2.2-.9.6-.2 1.2-.2 1.8-.4 1-.2 2.1-.2 3.1-.2.8 0 1.7 0 2.5.1s1.7.3 2.5.5 1.6.5 2.3.9c.8.4 1.4 1.1 1.8 1.8.5.9.8 1.8 1 2.8.2 1.1.3 2.3.2 3.5 0 .8-.1 1.6-.2 2.4-.1.9-.3 1.8-.7 2.6-.3.6-.6 1.1-1.1 1.6-.6.5-1.2 1-1.9 1.2-.5.2-1 .4-1.5.5-.7.2-1.4.3-2.1.4-.4.1-.8.1-1.1.1-.8 0-1.6.1-2.3.1-.3 0-.6-.1-1-.1-.1 0-.2 0-.2.1l-.9.9c-.4.4-.8.8-1.2 1.3-.3.3-.7.4-1.1.1-.3-.2-.3-.5-.4-.8v-.5c.1.1.1-.1.1-.3zm.7 1.4c.1-.1.1-.1.2-.1.3-.4.7-.7 1-1.1.6-.7 1.3-1.3 1.9-2 .1-.2.3-.2.5-.2 1.4.1 2.8 0 4.2-.2.8-.1 1.6-.3 2.3-.6.5-.2 1-.5 1.4-.8.9-.7 1.4-1.7 1.6-2.8l.3-1.8v-.5c0-1.2.1-2.3-.1-3.5-.2-.9-.4-1.7-.8-2.5-.3-.5-.6-.9-1.1-1.3-.6-.4-1.3-.8-2.1-.9-.7-.2-1.5-.4-2.3-.5-.7-.1-1.4-.1-2.2-.1-.9 0-1.9 0-2.8.1-1.1.1-2.2.3-3.2.9-.5.2-.9.5-1.3.8-.6.5-.9 1.1-1.2 1.8-.3.7-.4 1.3-.5 2-.1.6-.1 1.2-.1 1.8 0 1.4 0 2.9.5 4.2.2.6.5 1.1.8 1.5.7.9 1.6 1.4 2.7 1.8.2 0 .2.1.2.3v3.4c.1.1.1.1.1.3z"/><path d="M374.2 192.3c0-.4.3-.7.6-.9l.9-.6c.2-.2.8-.2 1 0 .3.2.5.5.7.8.3.4.6.7.8 1.1.1.2.2.5.2.8 0 .3-.3.5-.5.6-.1.1-.3.2-.4.4-.2.2-.2.5-.1.7.2.8.7 1.4 1.3 1.9.4.3.8.6 1.2.8.2.1.5.2.7.3.2.1.5 0 .6-.2.2-.2.3-.4.5-.6.2-.2.5-.3.8-.2.3.1.6.3.9.4.5.3.9.6 1.3.9.5.3.5.8.2 1.2-.3.3-.5.7-.9 1-.4.4-.9.5-1.5.3-.4-.2-.9-.4-1.3-.6-.6-.3-1.3-.7-1.9-1.1l-1.5-1.2c-.4-.3-.7-.7-1.1-1.1-.4-.5-.8-.9-1.1-1.4l-.9-1.5c-.2-.4-.4-.9-.6-1.3.1-.2.1-.3.1-.5zM380.1 190.4c.8.1 1.6.2 2.4.6.6.3 1.2.8 1.6 1.3.5.6.8 1.4.9 2.2 0 .3.1.5.1.8v.2c0 .2-.1.3-.3.3-.2 0-.3-.1-.3-.3 0-.4-.1-.8-.1-1.2-.1-.7-.4-1.3-.8-1.8-.5-.6-1.2-1.1-1.9-1.4-.5-.2-1.1-.2-1.6-.3h-.2c-.1 0-.3-.1-.2-.2 0-.1.1-.2.2-.2h.2z"/><path d="M383.7 194.9v.2c0 .2-.1.3-.2.3-.2 0-.3-.1-.3-.3 0-.4-.1-.8-.2-1.2-.3-.6-.8-1.1-1.4-1.4-.4-.2-.8-.2-1.3-.3-.1 0-.2 0-.3-.1-.1-.1-.1-.2-.1-.3.1-.1.2-.2.3-.2.4.1.8.1 1.2.2.5.1.9.4 1.2.8.8.7 1.1 1.4 1.1 2.3z"/><path d="M380.8 193c.6 0 1.1.2 1.4.8l.3.9c0 .2-.1.3-.2.4-.2 0-.2-.1-.3-.3-.1-.4-.2-.8-.6-1-.2-.1-.4-.1-.6-.1-.2 0-.3-.2-.3-.4 0-.3.2-.2.3-.3z"/></svg><svg viewBox="107 184.7 24 24" id="icons_vk" xmlns="http://www.w3.org/2000/svg"><path d="M119.1 201.1c-1 0-1.9-.2-2.7-.7-.7-.4-1.4-1-2-1.9-.9-1.2-1.7-2.6-2.5-4.5-.2-.4-.1-.7 0-.9.1-.2.3-.4.8-.4h1.9c.4 0 .8.3 1 .7.4.9.8 1.6 1.2 2.3.1.1.1.2.2.2v-.1c.1-.6 0-1.2 0-1.6 0-.2-.1-.2-.2-.3-.3-.1-.5-.2-.5-.4-.1-.2 0-.4.2-.6.2-.2.5-.5 1-.5h2.2c.8.1.9.6 1 1v2.5c.5-.5.8-1.1 1-1.7.1-.3.3-.6.4-.9.2-.5.6-.7.9-.7h2.4c.1 0 .5.1.7.4.2.3.1.7 0 .8-.2.6-.5 1.1-.9 1.6-.2.3-.4.5-.5.7-.2.3-.4.5-.6.8l-.1.2.2.2.3.3c.3.3.7.6 1 1 .2.2.4.5.5.8.2.3.2.7 0 1-.2.3-.4.4-.7.5h-2-.1c-.5 0-1-.2-1.5-.7-.2-.2-.4-.4-.5-.6l-.3-.3c-.1-.1-.1-.2-.2-.2-.1.2-.1.4-.1.6 0 .7-.4 1-1.1 1.1-.1.3-.2.3-.4.3zm-6.2-7.3c.8 1.8 1.5 3 2.3 4.1.6.7 1.1 1.3 1.7 1.6.7.4 1.6.6 2.5.5h.1v-.1c0-.3.1-.8.3-1.1.3-.5.9-.7 1.4-.3.2.1.3.3.4.4l.3.3c.2.2.3.4.5.5.2.2.5.4.8.4H125.1c-.1-.3-.3-.5-.4-.6l-.9-.9-.4-.3c-.6-.6-.6-1.1-.2-1.7.2-.3.4-.5.6-.8.2-.2.3-.4.5-.7.3-.4.6-.8.7-1.2h-2.1c-.2.4-.3.7-.5 1-.3.6-.7 1.4-1.3 2-.1.1-.4.4-.7.4h-.2c-.6-.2-.7-.9-.7-1.1v-2.4-.1h-1.8c.1.2.2.4.2.6.1.6.1 1.2 0 1.9 0 .3-.1.5-.1.7-.2.5-.6.5-.7.5-.2 0-.3-.1-.5-.2-.3-.2-.5-.5-.6-.7-.5-.7-1-1.6-1.3-2.5l-.1-.6v.5c-.6-.1-1.2-.1-1.7-.1z"/><path d="M126.9 207h-15.8c-1.4 0-2.6-1.2-2.6-2.6V189c0-1.4 1.2-2.6 2.6-2.6h15.8c1.4 0 2.6 1.2 2.6 2.6v15.4c0 1.4-1.2 2.6-2.6 2.6zm-15.8-19.6c-.9 0-1.6.7-1.6 1.6v15.4c0 .9.7 1.6 1.6 1.6h15.8c.9 0 1.6-.7 1.6-1.6V189c0-.9-.7-1.6-1.6-1.6h-15.8z"/></svg><svg viewBox="107 153.6 24 24" id="icons_vk-fill" xmlns="http://www.w3.org/2000/svg"><path d="M125 155.6h-12c-2.2 0-4 1.8-4 4v12c0 2.2 1.8 4 4 4h12c2.2 0 4-1.8 4-4v-12c0-2.3-1.8-4-4-4zm.8 14.7h-1.6c-.6 0-.8-.5-1.9-1.6-1-.9-1.4-1-1.6-1-.3 0-.4.1-.4.5v1.4c0 .4-.1.6-1.2.6-1.7 0-3.6-1-4.9-2.9-2-2.8-2.6-4.9-2.6-5.3 0-.2.1-.4.5-.4h1.6c.4 0 .6.2.7.6.8 2.3 2.1 4.3 2.7 4.3.2 0 .3-.1.3-.6v-2.4c-.1-1.1-.6-1.2-.6-1.6 0-.2.2-.4.4-.4h2.5c.3 0 .5.2.5.6v3.2c0 .3.1.5.3.5.2 0 .4-.1.8-.5 1.2-1.3 2-3.3 2-3.3.1-.2.3-.4.7-.4h1.6c.5 0 .6.2.5.6-.2.9-2.2 3.7-2.2 3.7-.2.3-.2.4 0 .7l1.1 1.1c.7.8 1.2 1.4 1.4 1.9.1.5-.1.7-.6.7z"/></svg><svg viewBox="397.2 184.7 24 24" id="icons_whatsapp" xmlns="http://www.w3.org/2000/svg"><path d="M398.8 207.2c.1-.5.2-.9.3-1.3.3-1.2.7-2.4 1-3.7.1-.3 0-.5-.1-.8-.5-.9-.8-1.8-1-2.8-.5-2.5-.1-4.9 1.1-7.1 1.2-2.2 3.1-3.8 5.5-4.7 1.3-.5 2.6-.7 4-.7 1.9.1 3.7.6 5.3 1.6 1.5.9 2.6 2.1 3.5 3.6.8 1.3 1.2 2.8 1.3 4.3.2 2.1-.3 4.1-1.3 5.9-1.2 2.2-3.1 3.8-5.5 4.7-1.5.5-3 .7-4.5.6-1.3-.1-2.5-.4-3.7-1-.3-.2-.7-.2-1-.1l-4.8 1.2c0 .3 0 .3-.1.3zm2.4-2.4h.1c.8-.2 1.7-.4 2.5-.7.5-.1.8-.1 1.3.1 1.7 1 3.5 1.3 5.4 1 1.5-.2 2.9-.8 4.1-1.8 1.8-1.5 2.9-3.3 3.3-5.6.2-1.7 0-3.3-.7-4.9-.7-1.6-1.8-2.8-3.3-3.8-2.1-1.3-4.3-1.7-6.7-1.1-1.6.4-2.9 1.1-4.1 2.2-1.6 1.6-2.5 3.6-2.6 6-.1 1.5.3 3 1 4.3.4.7.5 1.4.2 2.2-.2.8-.3 1.4-.5 2.1z"/><path d="M404 194c0-.6.4-1.4 1-2 .3-.3 1-.3 1.4-.1.1.1.2.3.3.4.2.6.4 1.1.7 1.7.2.4.1.7-.2 1-.2.2-.3.4-.5.6-.1.2-.1.3 0 .5.8 1.4 2 2.5 3.6 3.1.3.1.5.1.7-.2.2-.3.5-.6.7-.9.2-.2.3-.3.6-.1.6.3 1.3.6 1.9.9.2.1.4.3.3.6-.1 1-.6 1.7-1.6 2-.7.2-1.3.1-1.9 0-1.5-.4-2.8-1.2-3.9-2.2-1-.9-1.8-2-2.5-3.1-.4-.6-.6-1.3-.6-2.2z"/></svg><svg viewBox="310 184.7 24 24" id="icons_youtube" xmlns="http://www.w3.org/2000/svg"><path d="M313.7 204l-.1.5.1-.5zm16.6 0l.1.5-.1-.5zm.1-14.5l.1-.5-.1.5zm-16.8 0l.1.5-.1-.5zm6.4 4.2l.3-.4-.8-.5v.9h.5zm0 6h-.5v.9l.8-.5-.3-.4zm5-3l.3.4.7-.4-.7-.4-.3.4zm-13.5-5.3v10.5h1v-10.5h-1zm21 10.5v-10.5h-1v10.5h1zm-18.9 2.6c5.5 1.1 11.3 1.1 16.8 0l-.2-1c-5.4 1.1-11 1.1-16.4 0l-.2 1zm16.9-15.5c-5.6-1.2-11.4-1.2-17 0l.2 1c5.5-1.2 11.1-1.2 16.6 0l.2-1zm2 2.4c0-1.2-.8-2.2-2-2.5l-.2 1c.7.1 1.2.8 1.2 1.5h1zm-1 10.5c0 .8-.5 1.4-1.3 1.6l.2 1c1.2-.2 2.1-1.3 2.1-2.6h-1zm-20 0c0 1.2.9 2.3 2.1 2.6l.2-1c-.8-.2-1.3-.8-1.3-1.6h-1zm1-10.5c0-.7.5-1.3 1.2-1.5l-.2-1c-1.2.2-2 1.3-2 2.5h1zm7 2.3v6h1v-6h-1zm.8 6.4l5-3-.5-.9-5 3 .5.9zm5-3.9l-5-3-.5.9 5 3 .5-.9z"/></svg></svg>